<?xml version="1.0" encoding="UTF-8"?>
<!-- Generated by @neplex/vectorizer (Using visioncortex VTracer) -->
<svg version="1.1" xmlns="http://www.w3.org/2000/svg" width="450" height="256">
<path d="M0 0 C2.74 -0.05 5.49 -0.08 8.23 -0.1 C9.05 -0.12 9.88 -0.13 10.73 -0.15 C14.96 -0.17 18.35 -0.05 22.15 2.05 C23.82 4.03 25.23 5.91 26.65 8.05 C27.53 9.33 28.4 10.6 29.28 11.87 C29.75 12.55 30.21 13.23 30.69 13.93 C33.24 17.64 35.89 21.28 38.53 24.93 C39.08 25.69 39.63 26.45 40.19 27.24 C43.79 32.22 47.45 37.15 51.15 42.05 C57.05 49.87 62.79 57.81 68.5 65.76 C70.7 68.82 72.92 71.87 75.13 74.91 C77.28 77.88 79.42 80.86 81.55 83.84 C83.18 86.1 84.83 88.33 86.48 90.57 C87.52 92 88.55 93.43 89.59 94.87 C90.08 95.52 90.57 96.17 91.08 96.84 C94.26 101.32 94.26 101.32 93.77 104.52 C91.55 108 89.26 111.4 86.84 114.74 C86.31 115.48 85.78 116.23 85.23 116.99 C83.54 119.35 81.85 121.7 80.15 124.05 C79.08 125.55 78 127.04 76.92 128.54 C74.22 132.29 71.5 136.04 68.79 139.79 C67.17 142.03 65.55 144.28 63.93 146.52 C57.81 155.03 51.63 163.49 45.4 171.92 C40.75 178.22 36.15 184.56 31.59 190.92 C31.09 191.61 30.6 192.29 30.09 193 C29.66 193.59 29.24 194.19 28.8 194.79 C27.99 195.91 27.99 195.91 27.15 197.05 C26.66 198.05 26.66 198.05 26.16 199.06 C24.7 201.61 23.47 203.23 21.15 205.05 C16.15 206.19 11.22 205.99 6.13 205.83 C4.66 205.82 3.18 205.81 1.71 205.8 C-2.14 205.77 -6 205.69 -9.86 205.6 C-13.8 205.52 -17.74 205.48 -21.68 205.44 C-29.41 205.36 -37.13 205.22 -44.85 205.05 C-41.72 200.3 -38.6 195.58 -35.11 191.07 C-34.46 190.23 -33.81 189.38 -33.14 188.51 C-32.47 187.64 -31.79 186.76 -31.1 185.87 C-26.18 179.46 -21.35 173.04 -16.71 166.43 C-12.31 160.21 -7.65 154.2 -3.02 148.15 C1.5 142.25 5.95 136.3 10.34 130.3 C16.82 121.46 23.46 112.74 30.15 104.05 C28.82 101.23 27.31 98.76 25.46 96.25 C24.64 95.14 24.64 95.14 23.81 94.01 C23.22 93.22 22.63 92.43 22.03 91.62 C21.41 90.79 20.8 89.95 20.16 89.1 C14.81 81.89 9.36 74.75 3.91 67.62 C-1.29 60.81 -6.39 53.93 -11.43 47 C-14.14 43.28 -16.87 39.57 -19.6 35.87 C-20.18 35.08 -20.76 34.29 -21.35 33.48 C-24.54 29.16 -27.74 24.86 -30.97 20.57 C-31.65 19.67 -32.33 18.77 -33.03 17.84 C-34.34 16.11 -35.65 14.37 -36.96 12.64 C-37.86 11.46 -37.86 11.46 -38.77 10.25 C-39.55 9.21 -39.55 9.21 -40.35 8.16 C-41.99 5.86 -43.43 3.49 -44.85 1.05 C-39.23 0.91 -33.62 0.77 -28 0.63 C-26.1 0.58 -24.2 0.53 -22.3 0.48 C-14.87 0.29 -7.43 0.14 0 0 Z " fill="#000000" transform="translate(314.849365234375,50.9462890625)"/>
<path d="M0 0 C3.57 2.93 5.84 6.11 8.38 9.93 C9.43 11.46 10.48 12.99 11.54 14.52 C12.08 15.31 12.63 16.11 13.19 16.93 C16.01 20.99 18.94 24.96 21.88 28.93 C22.47 29.72 23.06 30.52 23.66 31.34 C27.88 37.04 32.14 42.7 36.4 48.36 C40.77 54.18 45.04 60.06 49.27 65.98 C51.64 69.28 54.01 72.57 56.51 75.77 C57.62 77.21 57.62 77.21 58.75 78.68 C59.39 79.48 60.03 80.28 60.68 81.1 C61.88 83.36 61.88 83.36 61.93 85.65 C60.34 89.75 57.82 92.99 55.19 96.49 C54.61 97.28 54.03 98.06 53.44 98.87 C51.59 101.38 49.74 103.87 47.88 106.36 C46.12 108.74 44.37 111.12 42.62 113.5 C41.45 115.09 40.28 116.67 39.11 118.25 C35.17 123.6 31.26 128.97 27.38 134.36 C22.92 140.56 18.42 146.72 13.88 152.86 C2.77 167.06 2.77 167.06 -7.07 182.07 C-8.28 184.08 -9.45 185.72 -11.12 187.36 C-14.22 188.08 -16.28 188.3 -19.38 188.22 C-20.2 188.23 -21.01 188.24 -21.86 188.24 C-24.56 188.26 -27.26 188.22 -29.96 188.19 C-31.85 188.18 -33.74 188.18 -35.63 188.19 C-39.6 188.18 -43.56 188.16 -47.53 188.11 C-52.58 188.05 -57.62 188.05 -62.67 188.05 C-66.58 188.06 -70.49 188.04 -74.39 188.02 C-76.25 188.01 -78.11 188 -79.97 188 C-100.03 187.97 -116.82 183.42 -131.5 169.03 C-144.84 155.48 -151.61 140.12 -152.43 120.99 C-151.98 105.45 -146.56 91.51 -137.12 79.36 C-136.43 78.43 -136.43 78.43 -135.73 77.47 C-127.96 67.55 -114.66 58.97 -102.12 57.36 C-102.03 56.78 -101.95 56.2 -101.86 55.6 C-98.68 37.06 -88.09 20.58 -72.87 9.61 C-53.37 -3.52 -22.23 -11.66 0 0 Z " fill="#000000" transform="translate(254.12109375,68.63671875)"/>
</svg>
