<?xml version="1.0" encoding="UTF-8"?>
<!-- Generated by @neplex/vectorizer (Using visioncortex VTracer) -->
<svg version="1.1" xmlns="http://www.w3.org/2000/svg" width="368" height="235">
<path d="M0 0 C121.44 0 242.88 0 368 0 C368 77.55 368 155.1 368 235 C333.68 235 299.36 235 264 235 C268.5 227.13 268.5 227.13 270.56 224.45 C271.02 223.84 271.48 223.24 271.96 222.61 C272.45 221.98 272.93 221.34 273.44 220.69 C277.84 214.88 282.18 209.04 286.44 203.12 C286.98 202.37 287.52 201.62 288.07 200.85 C289.72 198.57 291.36 196.28 293 194 C299.68 184.71 306.39 175.45 313.19 166.25 C318.14 159.55 323.07 152.84 327.86 146.03 C329.22 144.1 330.6 142.2 332.02 140.32 C332.59 139.53 333.16 138.75 333.75 137.94 C334.24 137.29 334.73 136.64 335.23 135.96 C336.23 133.96 336.23 133.96 335.41 131.64 C333.73 128.49 331.75 125.62 329.62 122.75 C328.72 121.5 327.81 120.25 326.9 119 C326.42 118.34 325.95 117.69 325.46 117.02 C323.52 114.33 321.62 111.62 319.72 108.91 C310.72 96.06 301.37 83.47 291.94 70.94 C287.67 65.27 283.47 59.56 279.31 53.81 C278.81 53.12 278.32 52.44 277.8 51.73 C277.31 51.04 276.81 50.35 276.3 49.64 C275.8 48.97 275.3 48.3 274.79 47.61 C273 45 273 45 271.24 41.75 C267.34 34.83 267.34 34.83 260.69 30.86 C256.72 30.5 252.87 30.53 248.9 30.73 C247.46 30.75 246.01 30.77 244.57 30.79 C240.79 30.84 237.02 30.96 233.25 31.11 C229.39 31.24 225.53 31.3 221.67 31.37 C214.11 31.5 206.55 31.73 199 32 C199.36 32.46 199.71 32.93 200.08 33.41 C206.48 41.74 212.87 50.08 219.06 58.56 C225.32 67.09 231.64 75.55 238 84 C250.19 100.2 262.29 116.46 274 133 C270.1 139.03 265.96 144.75 261.5 150.38 C255.97 157.41 250.61 164.54 245.32 171.75 C241.09 177.53 236.81 183.27 232.5 189 C227.57 195.56 222.67 202.14 217.81 208.75 C213.3 214.89 208.76 221.02 204.19 227.12 C203.68 227.81 203.17 228.49 202.64 229.19 C199.12 233.88 199.12 233.88 198 235 C196 235.09 194 235.11 192 235.1 C190.78 235.09 189.57 235.09 188.31 235.09 C187.04 235.08 185.76 235.07 184.44 235.06 C183.15 235.06 181.87 235.05 180.55 235.05 C177.37 235.04 174.18 235.02 171 235 C172.75 231.38 174.9 228.19 177.25 224.94 C177.68 224.33 178.12 223.73 178.57 223.11 C182.87 217.14 187.24 211.23 191.61 205.31 C195.61 199.9 199.57 194.46 203.5 189 C209.67 180.43 215.92 171.93 222.2 163.44 C224.06 160.91 225.92 158.39 227.79 155.86 C228.41 155.01 229.03 154.17 229.67 153.3 C230.85 151.7 232.03 150.09 233.21 148.49 C234.02 147.39 234.02 147.39 234.84 146.27 C235.62 145.2 235.62 145.2 236.41 144.12 C237.5 142.66 238.64 141.24 239.81 139.85 C241.38 137.95 242.8 136.15 244 134 C243.43 129.62 240.21 126.46 237.5 123.06 C233.97 118.57 230.54 114.04 227.25 109.38 C218.85 97.51 210.17 85.86 201.43 74.25 C197.51 69.03 193.65 63.76 189.78 58.5 C189.21 57.71 188.63 56.93 188.04 56.12 C187.53 55.43 187.01 54.73 186.48 54.01 C185.99 53.35 185.5 52.68 185 52 C184.5 51.28 183.99 50.55 183.48 49.81 C181.38 47.25 179.44 47.01 176.25 46.31 C175.17 46.08 174.09 45.84 172.98 45.59 C171.5 45.3 171.5 45.3 170 45 C168.89 44.77 167.77 44.55 166.62 44.31 C143.5 42.32 122.93 47.92 104.44 62.12 C93.32 71.51 85.21 84.05 82.88 98.5 C82.06 102.19 81.69 103.54 78.5 105.65 C76.42 106.48 74.32 107.24 72.19 107.95 C62.95 111 55.84 117.29 49 124 C48.04 124.92 48.04 124.92 47.06 125.86 C35.24 138.19 31.02 155.37 31 172 C32.18 190.41 40.09 206.11 53.38 218.75 C62.4 226.49 73.23 231.96 85 234 C85 234.33 85 234.66 85 235 C56.95 235 28.9 235 0 235 C0 157.45 0 79.9 0 0 Z " fill="#000000" transform="translate(0,0)"/>
</svg>
