<?xml version="1.0" encoding="UTF-8"?>
<!-- Generated by @neplex/vectorizer (Using visioncortex VTracer) -->
<svg version="1.1" xmlns="http://www.w3.org/2000/svg" width="1024" height="1024">
<path d="M0 0 C7.14 5.89 13.04 12.61 18.82 19.82 C21 22.48 23.25 25.03 25.57 27.57 C28.59 30.89 31.5 34.27 34.32 37.76 C37.93 42.21 41.62 46.56 45.38 50.88 C45.93 51.51 46.48 52.14 47.04 52.79 C49.84 56.01 52.65 59.23 55.46 62.43 C56.54 63.66 57.62 64.9 58.7 66.13 C59.19 66.69 59.69 67.25 60.2 67.83 C65.09 73.45 68.25 79.04 68.07 86.57 C66.16 93.8 60.87 99.03 56.07 104.57 C55.56 105.16 55.05 105.75 54.53 106.36 C52.31 108.91 50.1 111.46 47.88 114.01 C44.64 117.73 41.48 121.49 38.38 125.32 C34.6 129.99 30.59 134.41 26.53 138.84 C23.41 142.31 20.49 145.91 17.56 149.54 C13.5 154.49 9.29 159.3 5.07 164.11 C3.36 166.07 1.68 168.04 0.04 170.06 C-8.4 180.32 -20.85 187.27 -33.93 189.57 C-38 189.86 -42.07 189.86 -46.15 189.86 C-47.35 189.87 -48.56 189.87 -49.8 189.88 C-53.09 189.9 -56.37 189.9 -59.66 189.9 C-61.72 189.91 -63.78 189.91 -65.84 189.92 C-73.06 189.93 -80.27 189.94 -87.49 189.94 C-94.17 189.94 -100.86 189.96 -107.54 189.99 C-113.31 190.02 -119.08 190.03 -124.85 190.03 C-128.28 190.03 -131.72 190.03 -135.15 190.05 C-152.24 190.14 -168.62 190.2 -184.12 182.01 C-184.77 181.67 -185.42 181.33 -186.09 180.99 C-196.95 175.11 -205.89 166.69 -212.93 156.57 C-213.47 155.79 -214.01 155.02 -214.57 154.21 C-225.66 137.05 -228.3 116.66 -224.8 96.82 C-221.98 84.52 -216.85 74.34 -208.93 64.57 C-208.39 63.86 -207.84 63.16 -207.29 62.43 C-196.35 48.91 -180.55 41.4 -163.93 37.57 C-162.66 37.51 -162.66 37.51 -161.36 37.45 C-158.63 37.29 -157.26 37.06 -154.93 35.57 C-152.35 31.77 -150.28 27.84 -148.18 23.76 C-145.21 18.04 -141.26 13.33 -136.93 8.57 C-136.31 7.87 -135.68 7.16 -135.04 6.44 C-99.83 -31.22 -38.88 -31.22 0 0 Z M-112.93 29.57 C-122.63 40.89 -130.93 55.26 -130.93 70.57 C-131.66 70.43 -132.38 70.28 -133.13 70.13 C-148.5 67.3 -162.11 68.02 -175.58 76.75 C-184.46 83.62 -190.52 92.55 -192.93 103.57 C-194.24 118.5 -192.44 129.96 -183.14 142.06 C-175.07 151.24 -164.57 156.87 -152.35 157.76 C-149.5 157.84 -146.64 157.85 -143.79 157.84 C-142.71 157.85 -141.63 157.86 -140.52 157.86 C-136.98 157.87 -133.44 157.87 -129.9 157.87 C-127.43 157.87 -124.95 157.88 -122.48 157.88 C-117.3 157.89 -112.13 157.89 -106.95 157.89 C-100.33 157.88 -93.71 157.9 -87.09 157.92 C-81.99 157.94 -76.88 157.94 -71.77 157.93 C-69.33 157.93 -66.89 157.94 -64.45 157.95 C-61.04 157.96 -57.62 157.95 -54.2 157.94 C-53.21 157.95 -52.21 157.96 -51.18 157.97 C-39.76 157.88 -30.11 154.7 -21.91 146.57 C-19.84 144.29 -17.87 141.95 -15.93 139.57 C-15.26 138.75 -14.58 137.92 -13.89 137.07 C-12.42 135.27 -10.95 133.46 -9.48 131.66 C-5.99 127.4 -2.35 123.28 1.26 119.13 C4.52 115.39 7.7 111.61 10.82 107.76 C14.4 103.33 18.15 99.09 21.98 94.88 C24.74 91.83 27.41 88.71 30.07 85.57 C28.71 81.53 26.93 79.03 24.01 75.95 C20.82 72.51 17.76 69.03 14.82 65.38 C10.62 60.19 6.26 55.15 1.87 50.13 C-1.36 46.42 -4.49 42.66 -7.55 38.82 C-19.96 23.67 -34.05 12.62 -53.93 9.57 C-76.35 8.01 -96.6 13.19 -112.93 29.57 Z " fill="#322D93" transform="translate(327.9296875,428.4296875)"/>
<path d="M0 0 C9.24 0 18.48 0 28 0 C28 54.78 28 109.56 28 166 C19.42 166 10.84 166 2 166 C0.12 164.12 0.31 160.97 -0.06 158.44 C-0.33 156.64 -0.33 156.64 -0.6 154.81 C-0.73 153.88 -0.86 152.95 -1 152 C-1.47 152.52 -1.95 153.04 -2.43 153.57 C-10.34 161.91 -20.08 167.8 -31.8 168.43 C-33.45 168.46 -35.1 168.46 -36.75 168.44 C-38.06 168.43 -38.06 168.43 -39.4 168.41 C-52.54 168.07 -63.92 163.76 -73.51 154.61 C-75.8 152.15 -77.92 149.64 -80 147 C-80.74 146.06 -80.74 146.06 -81.49 145.11 C-91.83 130.34 -93.35 108.73 -90.32 91.42 C-87.04 76.11 -79.66 63.12 -67.01 53.8 C-54.28 45.93 -39.94 43.51 -25.24 46.15 C-17.75 48.12 -11.59 51.51 -5.82 56.62 C-5.1 57.25 -4.38 57.88 -3.65 58.54 C-3.1 59.02 -2.56 59.5 -2 60 C-1.98 58.92 -1.98 58.92 -1.97 57.81 C-1.87 51.01 -1.77 44.22 -1.66 37.42 C-1.61 33.92 -1.55 30.43 -1.5 26.93 C-1.45 22.91 -1.38 18.9 -1.32 14.88 C-1.3 13.62 -1.28 12.37 -1.27 11.07 C-1.25 9.91 -1.23 8.75 -1.21 7.55 C-1.19 6.53 -1.17 5.5 -1.16 4.44 C-1 2 -1 2 0 0 Z M-55.61 81.94 C-62.55 92.26 -63.34 105.08 -61.54 117.07 C-59.27 126.43 -55.01 134.19 -47.12 139.84 C-39.32 144.09 -30.17 144 -21.56 142.61 C-14 140.24 -7.8 134.07 -4.06 127.25 C1.08 115.57 1.31 102.2 -2.69 90.12 C-5.68 82.79 -9.81 76.66 -17 73 C-31.55 67.91 -45.41 69.52 -55.61 81.94 Z " fill="#2A2372" transform="translate(799,429)"/>
<path d="M0 0 C5.41 -0.12 10.81 -0.21 16.22 -0.27 C18.06 -0.3 19.9 -0.33 21.73 -0.38 C24.39 -0.44 27.04 -0.47 29.69 -0.49 C30.5 -0.51 31.31 -0.54 32.15 -0.57 C39.25 -0.57 43.76 2.07 48.96 6.77 C49.4 7.3 49.85 7.83 50.31 8.38 C50.82 8.99 51.34 9.59 51.87 10.21 C52.39 10.84 52.9 11.48 53.44 12.12 C54 12.79 54.55 13.45 55.13 14.13 C59.11 18.86 63 23.65 66.89 28.46 C69.03 31.04 71.24 33.52 73.5 36 C76.52 39.32 79.43 42.7 82.25 46.19 C85.87 50.66 89.59 55.03 93.38 59.38 C97.94 64.62 102.48 69.89 106.96 75.21 C109.3 78 111.67 80.77 114.06 83.52 C114.56 84.11 115.06 84.69 115.58 85.29 C116.54 86.4 117.5 87.5 118.47 88.6 C122.17 92.9 124.27 96.66 124.38 102.38 C124.4 103.08 124.43 103.79 124.46 104.52 C123.23 111.15 118.36 116.2 114 121.06 C112.84 122.38 111.67 123.71 110.51 125.03 C109.92 125.69 109.34 126.35 108.73 127.03 C106.08 130.04 103.48 133.08 100.88 136.12 C100.38 136.7 99.89 137.28 99.38 137.87 C95.62 142.27 91.88 146.68 88.15 151.1 C84.75 155.13 81.31 159.13 77.88 163.12 C74.38 167.19 70.94 171.28 67.56 175.44 C62.84 181.25 57.94 186.9 53.01 192.53 C51.27 194.53 49.57 196.53 47.89 198.59 C47.33 199.28 46.77 199.98 46.19 200.69 C45.75 201.25 45.31 201.81 44.86 202.39 C39.2 207.3 33.44 208.59 26.12 208.39 C25.32 208.38 24.51 208.38 23.67 208.37 C21.11 208.35 18.56 208.3 16 208.25 C14.25 208.23 12.51 208.21 10.76 208.2 C6.51 208.15 2.25 208.08 -2 208 C3.03 197.53 12.74 188.64 20.34 179.91 C26.53 172.79 32.69 165.65 38.62 158.31 C42.43 153.62 46.46 149.18 50.54 144.73 C53.67 141.26 56.59 137.64 59.53 134.01 C62.95 129.84 66.49 125.79 70.03 121.72 C75.42 115.53 80.72 109.28 86 103 C79.45 93.91 72 85.59 64.65 77.15 C63.54 75.87 62.42 74.59 61.31 73.31 C60.49 72.37 60.49 72.37 59.66 71.41 C55.71 66.86 51.9 62.22 48.11 57.54 C45.97 54.96 43.76 52.48 41.5 50 C38.48 46.68 35.57 43.3 32.75 39.81 C29.13 35.34 25.4 30.97 21.62 26.62 C17.38 21.74 13.14 16.86 8.94 11.94 C8.08 10.94 7.22 9.93 6.34 8.9 C4.03 6.04 2.02 3.07 0 0 Z " fill="#312C92" transform="translate(347,410)"/>
<path d="M0 0 C6.32 6.94 11 14.45 11 24 C8 24.34 5 24.67 2 25 C1.16 25.1 0.32 25.19 -0.54 25.29 C-5.73 25.85 -10.78 26.1 -16 26 C-16.4 25.11 -16.4 25.11 -16.81 24.21 C-19.81 18.15 -22.82 14.8 -29 12 C-31.42 11.08 -31.42 11.08 -34 11 C-34.64 10.95 -35.29 10.9 -35.95 10.85 C-43.04 10.54 -50.06 11.55 -55.62 16.19 C-57.59 20.21 -57.57 22.53 -57 27 C-54.12 31.63 -49 32.61 -44 34 C-37.79 35.34 -31.53 36.46 -25.28 37.57 C-12.5 39.99 0.26 43.7 8.81 54.12 C14.41 62.78 14.84 73.13 13 83 C10.3 92.48 3.75 99.51 -4.46 104.68 C-20.31 112.91 -41.38 113.61 -58.5 109.38 C-64.57 107.42 -69.83 104.72 -75 101 C-76.61 99.86 -76.61 99.86 -78.25 98.69 C-84.99 92.1 -89.83 83.82 -90.07 74.2 C-90.04 73.11 -90.04 73.11 -90 72 C-87.02 71.66 -84.04 71.33 -81.06 71 C-80.23 70.9 -79.4 70.81 -78.54 70.71 C-72.99 70.11 -67.58 69.91 -62 70 C-61.78 70.66 -61.56 71.33 -61.34 72.01 C-58.53 79.83 -55.99 82.9 -48.56 86.81 C-41.18 89.3 -31.68 89.27 -24.31 86.75 C-20.03 84.56 -20.03 84.56 -17 81 C-15.85 76.75 -15.53 73.28 -17.06 69.12 C-21.02 64.79 -26.11 63.56 -31.73 62.54 C-33.01 62.29 -34.29 62.05 -35.61 61.8 C-36.95 61.55 -38.28 61.31 -39.62 61.06 C-72.5 55.06 -72.5 55.06 -81.82 42.81 C-87.04 34.81 -87.31 25.28 -86 16 C-83.12 6.27 -77.05 -0.59 -68.29 -5.53 C-62.69 -8.23 -57.15 -10.06 -51 -11 C-50.27 -11.12 -49.54 -11.24 -48.78 -11.37 C-32.16 -13.61 -13.07 -11.15 0 0 Z " fill="#292371" transform="translate(602,486)"/>
<path d="M0 0 C0.77 -0.01 1.54 -0.02 2.33 -0.04 C3.09 -0.04 3.86 -0.04 4.64 -0.04 C5.32 -0.05 6.01 -0.05 6.71 -0.06 C10.26 0.29 13.72 1.32 17.19 2.19 C17.19 10.11 17.19 18.03 17.19 26.19 C14.55 25.86 11.91 25.53 9.19 25.19 C3.08 24.69 -1.45 25.08 -6.81 28.19 C-10.16 32.44 -10.34 36.3 -10.5 41.5 C-10.53 42.24 -10.57 42.98 -10.6 43.74 C-10.69 45.56 -10.75 47.37 -10.81 49.19 C-10 49.21 -9.19 49.24 -8.35 49.26 C-4.69 49.38 -1.03 49.5 2.62 49.62 C4.54 49.68 4.54 49.68 6.5 49.74 C8.32 49.81 8.32 49.81 10.18 49.87 C11.31 49.91 12.44 49.94 13.6 49.98 C16.19 50.19 16.19 50.19 17.19 51.19 C17.27 52.9 17.29 54.61 17.29 56.32 C17.28 57.25 17.28 58.18 17.28 59.14 C17.27 60.33 17.26 61.52 17.25 62.75 C17.23 66.52 17.21 70.3 17.19 74.19 C7.95 74.19 -1.29 74.19 -10.81 74.19 C-10.81 77 -10.8 79.81 -10.8 82.71 C-10.78 91.98 -10.77 101.24 -10.76 110.51 C-10.76 116.13 -10.75 121.76 -10.74 127.38 C-10.73 132.8 -10.72 138.22 -10.72 143.64 C-10.72 145.71 -10.71 147.79 -10.71 149.86 C-10.7 152.75 -10.7 155.64 -10.7 158.54 C-10.7 159.4 -10.69 160.27 -10.69 161.16 C-10.7 167.07 -10.7 167.07 -11.81 168.19 C-21.05 168.19 -30.29 168.19 -39.81 168.19 C-39.81 137.17 -39.81 106.15 -39.81 74.19 C-46.74 74.19 -53.67 74.19 -60.81 74.19 C-60.84 70.37 -60.86 66.56 -60.88 62.75 C-60.88 61.66 -60.89 60.57 -60.9 59.45 C-60.9 58.42 -60.91 57.38 -60.91 56.32 C-60.92 55.36 -60.92 54.4 -60.93 53.41 C-60.81 51.19 -60.81 51.19 -59.81 50.19 C-58.32 50.1 -56.83 50.08 -55.34 50.09 C-54.44 50.09 -53.54 50.1 -52.62 50.1 C-51.2 50.11 -51.2 50.11 -49.75 50.12 C-48.8 50.13 -47.85 50.13 -46.87 50.14 C-44.52 50.15 -42.17 50.17 -39.81 50.19 C-39.83 49.6 -39.84 49.02 -39.86 48.42 C-39.92 45.72 -39.96 43.01 -40 40.31 C-40.03 39.39 -40.05 38.48 -40.08 37.53 C-40.19 27.21 -37.74 18.04 -30.81 10.19 C-21.75 2.5 -11.62 0.01 0 0 Z " fill="#2A2371" transform="translate(684.8125,426.8125)"/>
<path d="M0 0 C9.24 0 18.48 0 28 0 C28.33 11.22 28.66 22.44 29 34 C38.5 33.96 38.5 33.96 48 33.91 C49.17 33.91 50.35 33.9 51.56 33.9 C53.37 33.89 53.37 33.89 55.22 33.89 C58 34 58 34 59 35 C59.09 36.71 59.11 38.42 59.1 40.13 C59.1 41.06 59.09 41.99 59.09 42.95 C59.08 44.14 59.07 45.33 59.06 46.56 C59.04 50.34 59.02 54.11 59 58 C48.77 58 38.54 58 28 58 C28.07 65.25 28.14 72.51 28.24 79.76 C28.28 83.14 28.32 86.51 28.35 89.89 C28.38 93.78 28.43 97.67 28.49 101.55 C28.49 102.75 28.5 103.95 28.51 105.18 C28.63 111.97 28.91 118.81 32 125 C37.31 127.83 43.53 127.24 49.44 127.12 C50.36 127.12 51.28 127.11 52.23 127.1 C54.49 127.07 56.74 127.04 59 127 C59.03 130.98 59.05 134.96 59.06 138.94 C59.07 140.07 59.08 141.21 59.09 142.38 C59.09 143.46 59.09 144.54 59.1 145.65 C59.1 146.65 59.11 147.65 59.11 148.68 C59 151 59 151 58 152 C42.31 154.46 25.86 154.52 12 146 C5.52 140.67 2 134.04 0 126 C-0.24 122.58 -0.24 122.58 -0.23 118.96 C-0.23 118.3 -0.23 117.63 -0.23 116.95 C-0.23 114.78 -0.21 112.61 -0.2 110.44 C-0.19 108.93 -0.19 107.41 -0.19 105.9 C-0.18 101.93 -0.16 97.96 -0.14 94 C-0.12 89.94 -0.11 85.89 -0.1 81.83 C-0.08 73.89 -0.04 65.94 0 58 C-6.93 58 -13.86 58 -21 58 C-21.03 54.19 -21.05 50.38 -21.06 46.56 C-21.07 45.47 -21.08 44.39 -21.09 43.26 C-21.09 42.23 -21.09 41.19 -21.1 40.13 C-21.1 39.17 -21.11 38.21 -21.11 37.22 C-21 35 -21 35 -20 34 C-18.51 33.91 -17.02 33.89 -15.53 33.9 C-14.72 33.9 -13.91 33.91 -13.07 33.91 C-12.04 33.92 -11 33.93 -9.94 33.94 C-6.66 33.96 -3.38 33.98 0 34 C0 22.78 0 11.56 0 0 Z " fill="#26206F" transform="translate(863,443)"/>
<path d="M0 0 C8.36 3.63 14.2 12.32 19.75 19.25 C21.93 21.91 24.18 24.46 26.5 27 C29.52 30.32 32.43 33.7 35.25 37.19 C38.85 41.64 42.55 45.99 46.31 50.31 C46.86 50.94 47.41 51.57 47.97 52.22 C50.77 55.44 53.58 58.66 56.39 61.86 C57.47 63.09 58.55 64.33 59.62 65.56 C60.12 66.12 60.62 66.68 61.13 67.26 C66.02 72.88 69.18 78.47 69 86 C67.09 93.23 61.8 98.46 57 104 C56.49 104.59 55.98 105.18 55.46 105.79 C53.24 108.34 51.03 110.89 48.81 113.44 C45.57 117.16 42.41 120.92 39.31 124.75 C33.27 132.2 26.82 139.25 20 146 C19.85 145.06 19.85 145.06 19.7 144.11 C19.13 141.59 19.13 141.59 15.75 140.29 C9.97 138.39 4.03 138.43 -2 138.31 C-3.16 138.28 -4.31 138.24 -5.5 138.21 C-8.34 138.13 -11.17 138.06 -14 138 C-14 138.66 -14 139.32 -14 140 C-14.66 139.67 -15.32 139.34 -16 139 C-10.41 132.06 -4.67 125.28 1.19 118.56 C4.45 114.82 7.63 111.04 10.75 107.19 C14.33 102.76 18.08 98.52 21.91 94.3 C24.67 91.26 27.34 88.14 30 85 C28.64 80.96 26.86 78.46 23.94 75.38 C20.75 71.94 17.69 68.46 14.75 64.81 C10.55 59.62 6.2 54.59 1.81 49.56 C-1.46 45.81 -4.64 42.01 -7.75 38.12 C-11.84 33.07 -16.31 28.49 -21 24 C-20.01 23.67 -19.02 23.34 -18 23 C-16.64 21.51 -16.64 21.51 -15.38 19.62 C-12.11 15.1 -8.61 10.81 -5.05 6.52 C-3.31 4.38 -1.63 2.22 0 0 Z " fill="#8050E2" transform="translate(327,429)"/>
<path d="M0 0 C57.91 0.5 57.91 0.5 117 1 C117 1.33 117 1.66 117 2 C113.04 2.33 109.08 2.66 105 3 C105.5 4.49 105.5 4.49 106 6 C106.99 6.5 106.99 6.5 108 7 C108 7.66 108 8.32 108 9 C108.93 8.81 109.86 8.63 110.81 8.44 C114 8 114 8 117 9 C117 8.34 117 7.68 117 7 C117.66 7 118.32 7 119 7 C118.65 12.54 116.4 15.34 112.62 19.12 C108.85 22.91 108.85 22.91 105.61 27.15 C104 29 104 29 101.94 29.49 C100.75 29.49 100.75 29.49 99.54 29.48 C98.17 29.49 98.17 29.49 96.77 29.5 C95.77 29.48 94.77 29.47 93.75 29.45 C92.16 29.45 92.16 29.45 90.55 29.46 C87.06 29.45 83.57 29.42 80.08 29.39 C77.66 29.38 75.25 29.38 72.83 29.37 C66.46 29.36 60.1 29.32 53.73 29.27 C47.23 29.23 40.74 29.22 34.24 29.2 C21.5 29.15 8.75 29.08 -4 29 C-4.33 28.01 -4.66 27.02 -5 26 C-4.67 25.34 -4.34 24.68 -4 24 C-4.66 23.34 -5.32 22.68 -6 22 C-5.01 22 -4.02 22 -3 22 C-2.67 17.38 -2.34 12.76 -2 8 C-0.68 8 0.64 8 2 8 C2.17 5.08 2.17 5.08 2 2 C1.34 1.34 0.68 0.68 0 0 Z " fill="#2F2B95" transform="translate(168,586)"/>
<path d="M0 0 C3.94 -0.12 7.87 -0.19 11.81 -0.25 C12.91 -0.28 14.01 -0.32 15.15 -0.35 C22.88 -0.44 28.94 0.85 36 4 C35.34 4.33 34.68 4.66 34 5 C33.85 6.34 33.85 6.34 33.69 7.71 C32.83 11.8 30.86 13.84 28 16.69 C26.99 17.73 25.98 18.78 24.98 19.84 C24.23 20.62 24.23 20.62 23.45 21.43 C21.27 23.78 19.3 26.29 17.31 28.81 C11.27 36.21 5.42 41.03 -3.06 45.38 C-3.74 45.72 -4.41 46.07 -5.1 46.42 C-9.73 48.68 -14.68 50.84 -19.91 49.52 C-22.27 48.93 -24.34 48.89 -26.77 48.9 C-28.1 48.91 -28.1 48.91 -29.46 48.91 C-30.84 48.92 -30.84 48.92 -32.25 48.94 C-33.65 48.94 -33.65 48.94 -35.09 48.95 C-37.39 48.96 -39.7 48.98 -42 49 C-37.81 43.33 -33.43 37.88 -28.86 32.52 C-27.15 30.2 -26.4 28.8 -26 26 C-26.66 26 -27.32 26 -28 26 C-28 26.66 -28 27.32 -28 28 C-28.66 28 -29.32 28 -30 28 C-30.33 28.66 -30.66 29.32 -31 30 C-31 29.01 -31 28.02 -31 27 C-32.98 27.33 -34.96 27.66 -37 28 C-37 27.34 -37 26.68 -37 26 C-38.32 25.67 -39.64 25.34 -41 25 C-40.34 25 -39.68 25 -39 25 C-39.5 24.01 -39.5 24.01 -40 23 C-69.7 22.67 -99.4 22.34 -130 22 C-130 21.67 -130 21.34 -130 21 C-133.3 20.67 -136.6 20.34 -140 20 C-140 19.67 -140 19.34 -140 19 C-139.43 19 -138.86 19 -138.28 18.99 C-124.42 18.93 -110.57 18.86 -96.71 18.76 C-90.01 18.72 -83.31 18.68 -76.61 18.65 C-70.13 18.63 -63.66 18.59 -57.19 18.54 C-54.73 18.52 -52.26 18.51 -49.8 18.5 C-46.34 18.49 -42.88 18.46 -39.42 18.43 C-37.9 18.43 -37.9 18.43 -36.35 18.44 C-25.91 18.3 -17.1 15.74 -9 9 C-7.32 7.17 -5.77 5.32 -4.29 3.32 C-3.65 2.67 -3.65 2.67 -3 2 C-2.01 2 -1.02 2 0 2 C0 1.34 0 0.68 0 0 Z " fill="#443AC4" transform="translate(313,567)"/>
<path d="M0 0 C8.58 0 17.16 0 26 0 C26 54.12 26 108.24 26 164 C17.75 164 9.5 164 1 164 C1 161.69 1 159.38 1 157 C1.33 157 1.66 157 2 157 C2.5 159.48 2.5 159.48 3 162 C3.99 161.67 4.98 161.34 6 161 C7.34 160.92 8.67 160.89 10.01 160.9 C11.15 160.91 11.15 160.91 12.31 160.91 C13.49 160.92 13.49 160.92 14.69 160.94 C15.48 160.94 16.28 160.95 17.1 160.95 C19.07 160.96 21.03 160.98 23 161 C22.34 158.69 21.68 156.38 21 154 C20.34 154 19.68 154 19 154 C19 153.01 19 152.02 19 151 C19.99 151 20.98 151 22 151 C22 143.41 22 135.82 22 128 C21.01 128 20.02 128 19 128 C19 127.34 19 126.68 19 126 C17.68 126 16.36 126 15 126 C15 123.69 15 121.38 15 119 C16.32 119 17.64 119 19 119 C19 115.7 19 112.4 19 109 C19.99 109 20.98 109 22 109 C22 105.04 22 101.08 22 97 C21.01 97 20.02 97 19 97 C18.67 98.32 18.34 99.64 18 101 C18 98.69 18 96.38 18 94 C19.32 94 20.64 94 22 94 C22 89.38 22 84.76 22 80 C22.33 80 22.66 80 23 80 C23.02 78.72 23.04 77.44 23.06 76.12 C23.07 75.41 23.09 74.69 23.1 73.95 C23.13 71.92 23.13 71.92 22 70 C21.91 68.04 21.89 66.08 21.9 64.12 C21.91 62.95 21.91 61.78 21.91 60.58 C21.92 59.36 21.93 58.14 21.94 56.88 C21.94 55.64 21.95 54.41 21.95 53.14 C21.96 50.1 21.98 47.05 22 44 C21.01 44 20.02 44 19 44 C19.19 44.95 19.37 45.9 19.56 46.88 C20.27 51.64 19.62 56.25 19 61 C18.01 61 17.02 61 16 61 C16 60.34 16 59.68 16 59 C15.01 59 14.02 59 13 59 C13 59.66 13 60.32 13 61 C12.34 61 11.68 61 11 61 C11 63.64 11 66.28 11 69 C10.67 69 10.34 69 10 69 C10 66.36 10 63.72 10 61 C9.01 61 8.02 61 7 61 C7 62.32 7 63.64 7 65 C6.34 65 5.68 65 5 65 C5 65.99 5 66.98 5 68 C5.66 68 6.32 68 7 68 C7.33 69.65 7.66 71.3 8 73 C7.01 73.5 7.01 73.5 6 74 C5.34 73.67 4.68 73.34 4 73 C4 71.68 4 70.36 4 69 C1.03 69.5 1.03 69.5 -2 70 C-2.33 67.36 -2.66 64.72 -3 62 C-2.01 62.33 -1.02 62.66 0 63 C0 42.21 0 21.42 0 0 Z " fill="#262071" transform="translate(800,430)"/>
<path d="M0 0 C0.33 0 0.66 0 1 0 C1 22.11 1 44.22 1 67 C4.3 67 7.6 67 11 67 C11 66.34 11 65.68 11 65 C12.32 65 13.64 65 15 65 C15 64.34 15 63.68 15 63 C15.64 62.88 16.28 62.75 16.94 62.62 C17.62 62.42 18.3 62.21 19 62 C19.33 61.34 19.66 60.68 20 60 C21.65 60.66 23.3 61.32 25 62 C25.74 58.02 26.14 54.22 26.21 50.18 C26.23 49.06 26.25 47.94 26.27 46.78 C26.29 44.99 26.29 44.99 26.32 43.16 C26.34 41.93 26.36 40.7 26.38 39.42 C26.44 35.49 26.5 31.56 26.56 27.62 C26.61 24.95 26.65 22.28 26.69 19.61 C26.8 13.08 26.9 6.54 27 0 C27.33 0 27.66 0 28 0 C28.01 1.04 28.01 1.04 28.02 2.1 C28.08 8.66 28.15 15.22 28.24 21.78 C28.28 25.15 28.32 28.52 28.35 31.89 C28.38 35.78 28.43 39.67 28.49 43.55 C28.49 44.75 28.5 45.95 28.51 47.18 C28.63 53.97 28.91 60.81 32 67 C37.31 69.83 43.53 69.24 49.44 69.12 C50.36 69.12 51.28 69.11 52.23 69.1 C54.49 69.07 56.74 69.04 59 69 C59.03 72.98 59.05 76.96 59.06 80.94 C59.07 82.07 59.08 83.21 59.09 84.38 C59.09 85.46 59.09 86.54 59.1 87.65 C59.1 88.65 59.11 89.65 59.11 90.68 C59 93 59 93 58 94 C42.31 96.46 25.86 96.52 12 88 C5.52 82.67 2 76.04 0 68 C-0.24 64.58 -0.24 64.58 -0.23 60.96 C-0.23 60.3 -0.23 59.63 -0.23 58.95 C-0.23 56.78 -0.21 54.61 -0.2 52.44 C-0.19 50.93 -0.19 49.41 -0.19 47.9 C-0.18 43.93 -0.16 39.96 -0.14 36 C-0.12 31.94 -0.11 27.89 -0.1 23.83 C-0.08 15.89 -0.04 7.94 0 0 Z " fill="#2E2875" transform="translate(863,501)"/>
<path d="M0 0 C9.24 0 18.48 0 28 0 C28 54.78 28 109.56 28 166 C19.42 166 10.84 166 2 166 C2 165.67 2 165.34 2 165 C10.25 165 18.5 165 27 165 C27 110.88 27 56.76 27 1 C18.42 1 9.84 1 1 1 C1 21.79 1 42.58 1 64 C0.34 64 -0.32 64 -1 64 C-0.67 65.98 -0.34 67.96 0 70 C1.65 70 3.3 70 5 70 C5 71.32 5 72.64 5 74 C6.49 73.5 6.49 73.5 8 73 C8 71.68 8 70.36 8 69 C7.34 69 6.68 69 6 69 C6 68.01 6 67.02 6 66 C6.66 66 7.32 66 8 66 C8 64.68 8 63.36 8 62 C9.98 62 11.96 62 14 62 C14 61.34 14 60.68 14 60 C14.99 60 15.98 60 17 60 C17 60.66 17 61.32 17 62 C17.99 62 18.98 62 20 62 C20 56.39 20 50.78 20 45 C20.99 45 21.98 45 23 45 C23.03 45.78 23.05 46.55 23.08 47.35 C23.19 50.86 23.31 54.37 23.44 57.88 C23.48 59.1 23.52 60.32 23.56 61.58 C23.6 62.75 23.64 63.92 23.68 65.12 C23.74 66.74 23.74 66.74 23.79 68.39 C23.83 70.98 23.83 70.98 25 73 C25.07 74.87 25.08 76.75 25.06 78.62 C25.05 79.63 25.04 80.63 25.04 81.66 C25.02 82.43 25.01 83.21 25 84 C24.67 84 24.34 84 24 84 C23.67 87.63 23.34 91.26 23 95 C22.01 95 21.02 95 20 95 C19.67 92.36 19.34 89.72 19 87 C16.36 87 13.72 87 11 87 C11 88.32 11 89.64 11 91 C8.03 91 5.06 91 2 91 C2.33 89.68 2.66 88.36 3 87 C2.42 87.19 1.85 87.37 1.25 87.56 C-1 88 -1 88 -5 87 C-5.99 82.05 -5.99 82.05 -7 77 C-7.99 76.67 -8.98 76.34 -10 76 C-10 75.34 -10 74.68 -10 74 C-9.01 74 -8.02 74 -7 74 C-7.1 73.41 -7.19 72.82 -7.29 72.21 C-7.94 67.56 -8.35 64.28 -6 60 C-4.68 60 -3.36 60 -2 60 C-1.99 59.28 -1.98 58.56 -1.97 57.81 C-1.87 51.01 -1.77 44.22 -1.66 37.42 C-1.61 33.92 -1.55 30.43 -1.5 26.93 C-1.45 22.91 -1.38 18.9 -1.32 14.88 C-1.29 13 -1.29 13 -1.27 11.07 C-1.24 9.33 -1.24 9.33 -1.21 7.55 C-1.19 6.53 -1.17 5.5 -1.16 4.44 C-1 2 -1 2 0 0 Z M-2 71 C-1 73 -1 73 -1 73 Z " fill="#262171" transform="translate(799,429)"/>
<path d="M0 0 C0.99 0 1.98 0 3 0 C3 5.61 3 11.22 3 17 C2.01 17 1.02 17 0 17 C-0.5 18.49 -0.5 18.49 -1 20 C-0.34 20 0.32 20 1 20 C1 20.99 1 21.98 1 23 C-0.65 23 -2.3 23 -4 23 C-5 26.58 -5 26.58 -4 30 C-3.01 30.33 -2.02 30.66 -1 31 C-1.66 31.66 -2.32 32.32 -3 33 C-3.17 36.08 -3.17 36.08 -3 39 C-4.32 38.67 -5.64 38.34 -7 38 C-8.46 40.65 -9 41.89 -9 45 C-11.31 45.66 -13.62 46.32 -16 47 C-16 47.33 -16 47.66 -16 48 C-26.56 48 -37.12 48 -48 48 C-47.01 43.04 -46.46 41.86 -43.25 38.31 C-42.57 37.55 -41.9 36.78 -41.2 35.99 C-38.87 33.88 -36.96 32.99 -34 32 C-33.34 31.67 -32.68 31.34 -32 31 C-32 32.32 -32 33.64 -32 35 C-31.01 35 -30.02 35 -29 35 C-28.77 33.72 -28.55 32.44 -28.31 31.12 C-27.78 28.91 -27.78 28.91 -27 27 C-24.38 25.5 -24.38 25.5 -22 25 C-22 25.66 -22 26.32 -22 27 C-21.01 27 -20.02 27 -19 27 C-19 26.01 -19 25.02 -19 24 C-19.66 24 -20.32 24 -21 24 C-20.67 22.02 -20.34 20.04 -20 18 C-18.68 17.67 -17.36 17.34 -16 17 C-16 16.34 -16 15.68 -16 15 C-15.38 14.96 -14.76 14.92 -14.12 14.88 C-13.42 14.59 -12.72 14.3 -12 14 C-11.69 13.03 -11.38 12.06 -11.06 11.06 C-10 8 -10 8 -7.44 6.75 C-6.63 6.5 -5.83 6.25 -5 6 C-4.67 5.34 -4.34 4.68 -4 4 C-3.34 4 -2.68 4 -2 4 C-2 3.34 -2 2.68 -2 2 C-1.34 2 -0.68 2 0 2 C0 1.34 0 0.68 0 0 Z " fill="#2F2A93" transform="translate(395,569)"/>
<path d="M0 0 C0.22 0.66 0.44 1.33 0.66 2.01 C2.85 8.09 4.67 11.34 10 15 C10.78 15.6 11.57 16.2 12.38 16.81 C12.91 17.2 13.45 17.6 14 18 C11.69 17.67 9.38 17.34 7 17 C7 16.34 7 15.68 7 15 C6.01 15 5.02 15 4 15 C4.66 15.66 5.32 16.32 6 17 C5.01 17 4.02 17 3 17 C3 17.66 3 18.32 3 19 C1.68 19 0.36 19 -1 19 C-1 19.66 -1 20.32 -1 21 C-2.32 21 -3.64 21 -5 21 C-5.33 21.99 -5.66 22.98 -6 24 C-8.48 24.5 -8.48 24.5 -11 25 C-10.34 25.66 -9.68 26.32 -9 27 C-8.34 26.67 -7.68 26.34 -7 26 C-6.67 27.98 -6.34 29.96 -6 32 C-4.35 32.33 -2.7 32.66 -1 33 C-1 34.32 -1 35.64 -1 37 C-10.69 34.15 -18.19 28.05 -23.63 19.59 C-26.64 13.91 -28.19 8.43 -28 2 C-25.02 1.66 -22.04 1.33 -19.06 1 C-18.23 0.9 -17.4 0.81 -16.54 0.71 C-10.99 0.11 -5.58 -0.09 0 0 Z " fill="#2A2472" transform="translate(540,556)"/>
<path d="M0 0 C8.58 0 17.16 0 26 0 C26 54.12 26 108.24 26 164 C17.75 164 9.5 164 1 164 C1 161.69 1 159.38 1 157 C1.33 157 1.66 157 2 157 C2 158.98 2 160.96 2 163 C9.59 163 17.18 163 25 163 C25 110.2 25 57.4 25 3 C20.05 3 15.1 3 10 3 C10.33 3.66 10.66 4.32 11 5 C11.99 5 12.98 5 14 5 C14 5.66 14 6.32 14 7 C14.66 7 15.32 7 16 7 C16.33 7.66 16.66 8.32 17 9 C17.99 9 18.98 9 20 9 C20 9.99 20 10.98 20 12 C19.34 12 18.68 12 18 12 C18 12.66 18 13.32 18 14 C17.01 14.5 17.01 14.5 16 15 C16 16.65 16 18.3 16 20 C15.34 20 14.68 20 14 20 C14 20.66 14 21.32 14 22 C12.68 22 11.36 22 10 22 C10 22.66 10 23.32 10 24 C9.01 24 8.02 24 7 24 C7 22.02 7 20.04 7 18 C5.68 17.34 4.36 16.68 3 16 C2.67 30.85 2.34 45.7 2 61 C1.67 61 1.34 61 1 61 C0.67 40.87 0.34 20.74 0 0 Z " fill="#201B62" transform="translate(800,430)"/>
<path d="M0 0 C10.89 0 21.78 0 33 0 C33 0.99 33 1.98 33 3 C31.02 3 29.04 3 27 3 C27 3.99 27 4.98 27 6 C28.32 6 29.64 6 31 6 C31 6.66 31 7.32 31 8 C32.32 8 33.64 8 35 8 C35 8.99 35 9.98 35 11 C33.68 11 32.36 11 31 11 C31 11.99 31 12.98 31 14 C29.68 14 28.36 14 27 14 C27 15.32 27 16.64 27 18 C27.66 18 28.32 18 29 18 C29 18.66 29 19.32 29 20 C29.66 20 30.32 20 31 20 C31 22.67 31 25.33 31 28 C26.87 27.39 23.62 26.09 20 24 C19.34 23.01 18.68 22.02 18 21 C17.39 20.71 16.78 20.41 16.16 20.11 C13.28 18.63 11.63 16.62 9.5 14.19 C8.37 12.91 8.37 12.91 7.22 11.61 C6.49 10.75 5.75 9.89 5 9 C4.27 8.15 3.54 7.3 2.78 6.43 C1 4 1 4 0 0 Z " fill="#2F2B92" transform="translate(351,413)"/>
<path d="M0 0 C0.33 0 0.66 0 1 0 C1.33 1.65 1.66 3.3 2 5 C2.33 5 2.66 5 3 5 C3.66 20.51 4.32 36.02 5 52 C5.99 52 6.98 52 8 52 C8 53.32 8 54.64 8 56 C8.66 56 9.32 56 10 56 C10.33 67.22 10.66 78.44 11 90 C17.93 90.5 17.93 90.5 25 91 C25 91.33 25 91.66 25 92 C16.75 92 8.5 92 0 92 C0 61.64 0 31.28 0 0 Z " fill="#241F6E" transform="translate(646,501)"/>
<path d="M0 0 C0 7.92 0 15.84 0 24 C-6.61 24.6 -12.65 25.12 -19.19 25.06 C-20.48 25.05 -21.77 25.04 -23.11 25.04 C-24.54 25.02 -24.54 25.02 -26 25 C-25.67 24.34 -25.34 23.68 -25 23 C-22.45 22.69 -20 22.49 -17.44 22.38 C-16.73 22.34 -16.02 22.3 -15.28 22.26 C-13.52 22.16 -11.76 22.08 -10 22 C-14.62 22 -19.24 22 -24 22 C-23.67 18.37 -23.34 14.74 -23 11 C-21.68 11 -20.36 11 -19 11 C-18.67 9.02 -18.34 7.04 -18 5 C-18.96 4.57 -18.96 4.57 -19.94 4.12 C-22 3 -22 3 -23 1 C-20.1 0.83 -17.21 0.67 -14.31 0.5 C-13.09 0.43 -13.09 0.43 -11.84 0.36 C-11.04 0.31 -10.25 0.27 -9.43 0.22 C-8.7 0.18 -7.97 0.13 -7.22 0.09 C-4.82 -0.01 -2.41 0 0 0 Z " fill="#2E2972" transform="translate(922,570)"/>
<path d="M0 0 C0 5.94 0 11.88 0 18 C1.94 18.06 3.87 18.12 5.87 18.18 C8.39 18.27 10.92 18.35 13.44 18.44 C14.72 18.48 16 18.52 17.31 18.56 C18.53 18.6 19.74 18.64 21 18.68 C22.12 18.72 23.25 18.76 24.41 18.79 C27 19 27 19 28 20 C28.09 21.71 28.11 23.42 28.1 25.13 C28.1 26.06 28.09 26.99 28.09 27.95 C28.08 29.14 28.07 30.33 28.06 31.56 C28.04 35.34 28.02 39.11 28 43 C18.76 43 9.52 43 0 43 C0 73.69 0 104.38 0 136 C-0.33 136 -0.66 136 -1 136 C-1 104.65 -1 73.3 -1 41 C7.58 41 16.16 41 25 41 C25 35.39 25 29.78 25 24 C24.34 24.33 23.68 24.66 23 25 C22.67 25.99 22.34 26.98 22 28 C21.35 29.34 20.68 30.68 20 32 C19.01 32 18.02 32 17 32 C17 30.02 17 28.04 17 26 C15.68 26 14.36 26 13 26 C13 25.01 13 24.02 13 23 C11.93 22.95 10.86 22.9 9.75 22.85 C8.36 22.78 6.96 22.7 5.56 22.62 C4.86 22.59 4.15 22.56 3.42 22.53 C1.61 22.43 -0.2 22.22 -2 22 C-3.17 19.65 -3.12 18.26 -3.1 15.65 C-3.09 14.8 -3.09 13.95 -3.09 13.07 C-3.08 12.18 -3.07 11.29 -3.06 10.38 C-3.06 9.48 -3.05 8.58 -3.05 7.66 C-3.04 5.44 -3.02 3.22 -3 1 C-1 0 -1 0 0 0 Z " fill="#656394" transform="translate(674,458)"/>
<path d="M0 0 C44.22 0 88.44 0 134 0 C133.34 0.99 132.68 1.98 132 3 C129.8 3.37 129.8 3.37 127.02 3.37 C125.96 3.37 124.91 3.38 123.82 3.38 C122.66 3.38 121.5 3.37 120.3 3.36 C119.08 3.36 117.86 3.36 116.61 3.36 C113.25 3.37 109.9 3.35 106.55 3.34 C103.04 3.32 99.54 3.32 96.03 3.32 C90.14 3.32 84.24 3.3 78.35 3.28 C70.79 3.25 63.23 3.24 55.67 3.24 C49.17 3.23 42.67 3.22 36.17 3.21 C34.08 3.2 31.99 3.2 29.91 3.2 C26.01 3.19 22.11 3.18 18.22 3.16 C17.06 3.16 15.91 3.16 14.72 3.16 C13.12 3.15 13.12 3.15 11.49 3.14 C10.57 3.14 9.65 3.13 8.7 3.13 C5.74 2.99 2.91 2.54 0 2 C0 1.34 0 0.68 0 0 Z " fill="#484391" transform="translate(162,615)"/>
<path d="M0 0 C9.24 0 18.48 0 28 0 C28 54.78 28 109.56 28 166 C19.42 166 10.84 166 2 166 C2 165.67 2 165.34 2 165 C10.25 165 18.5 165 27 165 C27 110.88 27 56.76 27 1 C18.42 1 9.84 1 1 1 C1 21.79 1 42.58 1 64 C0.34 64 -0.32 64 -1 64 C-2.06 60.81 -2.09 58.63 -2.04 55.28 C-2.02 54.1 -2 52.93 -1.99 51.72 C-1.96 50.45 -1.94 49.18 -1.91 47.87 C-1.89 46.57 -1.87 45.27 -1.85 43.93 C-1.8 41.18 -1.76 38.43 -1.7 35.68 C-1.64 32.15 -1.58 28.62 -1.53 25.09 C-1.47 21.72 -1.41 18.36 -1.35 15 C-1.33 13.73 -1.31 12.45 -1.29 11.15 C-1.27 9.97 -1.25 8.8 -1.22 7.6 C-1.2 6.56 -1.18 5.53 -1.16 4.46 C-1 2 -1 2 0 0 Z " fill="#83819A" transform="translate(799,429)"/>
<path d="M0 0 C-1.29 2.79 -2.69 4.99 -4.72 7.29 C-5.52 8.2 -5.52 8.2 -6.34 9.13 C-6.91 9.77 -7.48 10.4 -8.06 11.06 C-12.1 15.64 -16.04 20.26 -19.81 25.06 C-24.03 30.28 -28.53 34.84 -35 37 C-37.8 37.09 -40.58 37.12 -43.39 37.1 C-44.2 37.1 -45.02 37.09 -45.86 37.09 C-48.47 37.09 -51.08 37.08 -53.69 37.06 C-55.46 37.06 -57.23 37.05 -58.99 37.05 C-63.33 37.04 -67.66 37.02 -72 37 C-71.67 36.01 -71.34 35.02 -71 34 C-70.67 34.66 -70.34 35.32 -70 36 C-65.05 35.67 -60.1 35.34 -55 35 C-55 34.67 -55 34.34 -55 34 C-47.41 33.67 -39.82 33.34 -32 33 C-32 32.01 -32 31.02 -32 30 C-31.05 27.98 -30.05 25.97 -29 24 C-28.34 24.33 -27.68 24.66 -27 25 C-27.5 25.5 -27.5 25.5 -28 26 C-27.01 26.33 -26.02 26.66 -25 27 C-25.21 26.05 -25.41 25.1 -25.62 24.12 C-25.75 23.09 -25.87 22.06 -26 21 C-25.34 20.34 -24.68 19.68 -24 19 C-24.66 18.67 -25.32 18.34 -26 18 C-26.33 18.66 -26.66 19.32 -27 20 C-28.05 16.02 -27.84 13.02 -27 9 C-26.5 9.99 -26.5 9.99 -26 11 C-24.35 11 -22.7 11 -21 11 C-21 10.01 -21 9.02 -21 8 C-21.66 8 -22.32 8 -23 8 C-23 6.35 -23 4.7 -23 3 C-22.5 3.99 -22.5 3.99 -22 5 C-19.36 4.34 -16.72 3.68 -14 3 C-14.33 4.32 -14.66 5.64 -15 7 C-15.99 7.33 -16.98 7.66 -18 8 C-18 9.32 -18 10.64 -18 12 C-18.66 12 -19.32 12 -20 12 C-20 12.66 -20 13.32 -20 14 C-20.66 14 -21.32 14 -22 14 C-22 14.99 -22 15.98 -22 17 C-18.04 16.5 -18.04 16.5 -14 16 C-14 15.34 -14 14.68 -14 14 C-13.34 14 -12.68 14 -12 14 C-12 12.68 -12 11.36 -12 10 C-11.34 10 -10.68 10 -10 10 C-10 8.68 -10 7.36 -10 6 C-9.01 6 -8.02 6 -7 6 C-7 4.35 -7 2.7 -7 1 C-4 0 -4 0 0 0 Z " fill="#302A94" transform="translate(417,581)"/>
<path d="M0 0 C57.91 0.5 57.91 0.5 117 1 C117 1.33 117 1.66 117 2 C83.34 2 49.68 2 15 2 C14.67 2.66 14.34 3.32 14 4 C11.69 3.67 9.38 3.34 7 3 C7 3.99 7 4.98 7 6 C8.32 5.67 9.64 5.34 11 5 C11 5.66 11 6.32 11 7 C9.68 7 8.36 7 7 7 C7 8.65 7 10.3 7 12 C7.66 12 8.32 12 9 12 C9 12.66 9 13.32 9 14 C9.66 14.33 10.32 14.66 11 15 C10.34 15 9.68 15 9 15 C9 15.66 9 16.32 9 17 C8.34 17 7.68 17 7 17 C7 17.99 7 18.98 7 20 C7.66 20.33 8.32 20.66 9 21 C8.34 21 7.68 21 7 21 C6.67 21.66 6.34 22.32 6 23 C6 22.34 6 21.68 6 21 C3.67 21.96 3.67 21.96 2 25 C2 24.34 2 23.68 2 23 C1.01 23 0.02 23 -1 23 C-1.33 23.66 -1.66 24.32 -2 25 C-2 24.34 -2 23.68 -2 23 C-3.32 22.67 -4.64 22.34 -6 22 C-5.01 22 -4.02 22 -3 22 C-2.67 17.38 -2.34 12.76 -2 8 C-0.68 8 0.64 8 2 8 C2.17 5.08 2.17 5.08 2 2 C1.34 1.34 0.68 0.68 0 0 Z " fill="#2A248A" transform="translate(168,586)"/>
<path d="M0 0 C38.61 0 77.22 0 117 0 C117 3.14 116.67 5.93 116 9 C115.34 9.33 114.68 9.66 114 10 C114 9.01 114 8.02 114 7 C113.34 7 112.68 7 112 7 C112 7.66 112 8.32 112 9 C111.34 9 110.68 9 110 9 C109.67 9.66 109.34 10.32 109 11 C109 10.01 109 9.02 109 8 C107.02 8.33 105.04 8.66 103 9 C103 8.34 103 7.68 103 7 C101.68 6.67 100.36 6.34 99 6 C99.66 6 100.32 6 101 6 C100.5 5.01 100.5 5.01 100 4 C70.3 3.67 40.6 3.34 10 3 C10 2.67 10 2.34 10 2 C6.7 1.67 3.4 1.34 0 1 C0 0.67 0 0.34 0 0 Z " fill="#4A46A9" transform="translate(173,586)"/>
<path d="M0 0 C0.5 0.99 0.5 0.99 1 2 C0.01 2 -0.98 2 -2 2 C-2 2.99 -2 3.98 -2 5 C-3.32 5 -4.64 5 -6 5 C-6 8.96 -6 12.92 -6 17 C-6.99 16.67 -7.98 16.34 -9 16 C-8.34 16 -7.68 16 -7 16 C-7 15.01 -7 14.02 -7 13 C-7.99 13 -8.98 13 -10 13 C-10 13.66 -10 14.32 -10 15 C-10.66 15 -11.32 15 -12 15 C-12 15.66 -12 16.32 -12 17 C-13.32 17 -14.64 17 -16 17 C-16 17.66 -16 18.32 -16 19 C-16.99 19 -17.98 19 -19 19 C-19 18.34 -19 17.68 -19 17 C-19.99 17 -20.98 17 -22 17 C-22.33 18.32 -22.66 19.64 -23 21 C-23 20.34 -23 19.68 -23 19 C-24.65 18.67 -26.3 18.34 -28 18 C-28 17.01 -28 16.02 -28 15 C-26.35 14.67 -24.7 14.34 -23 14 C-23 13.01 -23 12.02 -23 11 C-24.09 11.19 -25.19 11.37 -26.31 11.56 C-30 12 -30 12 -33 11 C-22.66 5.18 -11.55 2.39 0 0 Z " fill="#3A3398" transform="translate(173,464)"/>
<path d="M0 0 C0.99 0.33 1.98 0.66 3 1 C3 1.66 3 2.32 3 3 C5.31 3.33 7.62 3.66 10 4 C10 5.98 10 7.96 10 10 C9.01 9.67 8.02 9.34 7 9 C7.99 10.32 8.98 11.64 10 13 C9.01 13.33 8.02 13.66 7 14 C6.67 14.99 6.34 15.98 6 17 C5.01 17 4.02 17 3 17 C2.67 18.32 2.34 19.64 2 21 C1.67 20.34 1.34 19.68 1 19 C0.34 19.66 -0.32 20.32 -1 21 C-4.19 20.95 -7.08 20.29 -10 19 C-11.56 15.88 -11.56 15.88 -12 13 C-12.99 13 -13.98 13 -15 13 C-15 12.34 -15 11.68 -15 11 C-14.2 10.71 -13.39 10.42 -12.56 10.12 C-9.87 9.27 -9.87 9.27 -9 7 C-7.68 7 -6.36 7 -5 7 C-5 6.34 -5 5.68 -5 5 C-3.68 5 -2.36 5 -1 5 C-0.67 3.35 -0.34 1.7 0 0 Z " fill="#252070" transform="translate(544,570)"/>
<path d="M0 0 C0.33 0 0.66 0 1 0 C1.33 1.65 1.66 3.3 2 5 C2.33 5 2.66 5 3 5 C3 33.05 3 61.1 3 90 C3.66 90 4.32 90 5 90 C5 89.34 5 88.68 5 88 C5.66 88 6.32 88 7 88 C7.19 87.04 7.19 87.04 7.38 86.06 C7.58 85.38 7.79 84.7 8 84 C8.99 83.5 8.99 83.5 10 83 C10.33 85.31 10.66 87.62 11 90 C17.93 90.5 17.93 90.5 25 91 C25 91.33 25 91.66 25 92 C16.75 92 8.5 92 0 92 C0 61.64 0 31.28 0 0 Z " fill="#1C1768" transform="translate(646,501)"/>
<path d="M0 0 C0.66 1.32 1.32 2.64 2 4 C1.01 4.33 0.02 4.66 -1 5 C-1.33 7.64 -1.66 10.28 -2 13 C-3.32 12.67 -4.64 12.34 -6 12 C-6 12.66 -6 13.32 -6 14 C-6.66 14 -7.32 14 -8 14 C-8.06 14.9 -8.11 15.81 -8.17 16.74 C-8.37 20.08 -8.59 23.42 -8.8 26.76 C-8.89 28.21 -8.98 29.66 -9.07 31.11 C-9.2 33.19 -9.33 35.26 -9.46 37.34 C-9.54 38.59 -9.62 39.84 -9.7 41.13 C-10 44 -10 44 -11 45 C-12.49 45.09 -13.98 45.11 -15.47 45.1 C-16.37 45.09 -17.27 45.09 -18.2 45.09 C-19.62 45.08 -19.62 45.08 -21.06 45.06 C-22.01 45.06 -22.96 45.05 -23.94 45.05 C-26.29 45.04 -28.65 45.02 -31 45 C-31 51.27 -31 57.54 -31 64 C-24.4 64 -17.8 64 -11 64 C-11 64.33 -11 64.66 -11 65 C-17.93 65 -24.86 65 -32 65 C-32 57.41 -32 49.82 -32 42 C-25.4 42 -18.8 42 -12 42 C-12.12 35.54 -12.12 35.54 -12.27 29.08 C-12.35 20.73 -10.9 12.94 -6 6 C-5.5 5.28 -5.01 4.56 -4.5 3.81 C-3 2 -3 2 0 0 Z " fill="#423E80" transform="translate(657,435)"/>
<path d="M0 0 C3 0 3 0 9 1 C9 10.24 9 19.48 9 29 C8.01 29 7.02 29 6 29 C6 30.32 6 31.64 6 33 C5.34 33 4.68 33 4 33 C2.2 29.17 1.8 26.22 2 22 C1.67 22 1.34 22 1 22 C0.17 16.96 -0.11 12.19 -0.06 7.06 C-0.06 6.38 -0.05 5.69 -0.05 4.99 C-0.04 3.33 -0.02 1.66 0 0 Z " fill="#2F298D" transform="translate(103,534)"/>
<path d="M0 0 C5.41 -0.12 10.81 -0.21 16.22 -0.27 C18.06 -0.3 19.9 -0.33 21.73 -0.38 C24.39 -0.44 27.04 -0.47 29.69 -0.49 C30.5 -0.51 31.31 -0.54 32.15 -0.57 C38.19 -0.57 42.34 1.1 47 5 C47.5 5.99 47.5 5.99 48 7 C46.58 6.91 46.58 6.91 45.12 6.81 C43.58 6.91 43.58 6.91 42 7 C41.34 7.99 40.68 8.98 40 10 C40.66 10 41.32 10 42 10 C42 10.66 42 11.32 42 12 C42.66 12.33 43.32 12.66 44 13 C42.35 13 40.7 13 39 13 C39 12.34 39 11.68 39 11 C37.68 11 36.36 11 35 11 C35 10.34 35 9.68 35 9 C33.68 9 32.36 9 31 9 C31 8.01 31 7.02 31 6 C32.98 6 34.96 6 37 6 C37 5.01 37 4.02 37 3 C21.16 3.5 21.16 3.5 5 4 C4.67 4.66 4.34 5.32 4 6 C2.68 4.02 1.36 2.04 0 0 Z " fill="#2F298F" transform="translate(347,410)"/>
<path d="M0 0 C0.66 0 1.32 0 2 0 C2 1.98 2 3.96 2 6 C2.99 6 3.98 6 5 6 C5.33 4.35 5.66 2.7 6 1 C6.66 1 7.32 1 8 1 C9.18 3.35 9.17 4.88 9.19 7.5 C9.2 8.29 9.22 9.09 9.23 9.91 C9 12 9 12 7 14 C6.6 15.99 6.26 17.99 6 20 C6.66 20 7.32 20 8 20 C8 21.65 8 23.3 8 25 C7.34 25 6.68 25 6 25 C6 27.64 6 30.28 6 33 C5.5 31.51 5.5 31.51 5 30 C4.01 30 3.02 30 2 30 C0.85 27.71 0.93 26.47 1 23.94 C1 22.64 1 21.34 1 20 C0.67 19.67 0.34 19.34 0 19 C-0.09 17.58 -0.11 16.16 -0.1 14.75 C-0.09 13.89 -0.09 13.04 -0.09 12.16 C-0.08 11.26 -0.07 10.36 -0.06 9.44 C-0.06 8.54 -0.05 7.63 -0.05 6.71 C-0.04 4.47 -0.02 2.24 0 0 Z " fill="#241F6E" transform="translate(709,526)"/>
<path d="M0 0 C0.66 0.33 1.32 0.66 2 1 C1.18 1.91 0.35 2.81 -0.5 3.75 C-4.15 8.73 -3.44 14.09 -3 20 C-3.99 20 -4.98 20 -6 20 C-6 19.34 -6 18.68 -6 18 C-6.56 18.23 -7.11 18.45 -7.69 18.69 C-10.92 19.12 -12.39 17.81 -15 16 C-16.6 17.19 -16.6 17.19 -18 19 C-18.25 21.63 -18.25 21.63 -18 24 C-18.66 24 -19.32 24 -20 24 C-20 24.66 -20 25.32 -20 26 C-23.75 27.12 -23.75 27.12 -26 26 C-21.33 15.34 -9.76 6.01 0 0 Z " fill="#3A3498" transform="translate(210,421)"/>
<path d="M0 0 C0.66 0 1.32 0 2 0 C2 0.66 2 1.32 2 2 C2.66 2 3.32 2 4 2 C4 7 4 12 4 17 C4.02 17.7 4.05 18.4 4.07 19.12 C4.1 20.27 4.1 20.27 4.12 21.44 C4.15 22.2 4.17 22.96 4.2 23.75 C3.98 26.25 3.25 27.84 2 30 C2.64 30.21 3.28 30.41 3.94 30.62 C6 32 6 32 6.75 35.12 C6.83 36.07 6.91 37.02 7 38 C6.01 38 5.02 38 4 38 C-1.02 32.58 -4.3 25.13 -6 18 C-5.67 17.01 -5.34 16.02 -5 15 C-5 15.66 -5 16.32 -5 17 C-4.01 17 -3.02 17 -2 17 C-1.67 15.35 -1.34 13.7 -1 12 C-0.34 12 0.32 12 1 12 C1 10.35 1 8.7 1 7 C0.34 7 -0.32 7 -1 7 C-1.04 5 -1.04 3 -1 1 C-0.67 0.67 -0.34 0.34 0 0 Z " fill="#25216F" transform="translate(716,539)"/>
<path d="M0 0 C0.33 0.66 0.66 1.32 1 2 C1.99 2 2.98 2 4 2 C4 2.99 4 3.98 4 5 C3.34 5 2.68 5 2 5 C2 5.99 2 6.98 2 8 C6.46 7.5 6.46 7.5 11 7 C12 10 12 10 11 13 C10.43 12.81 9.87 12.63 9.28 12.44 C2.13 10.18 -5.07 8.72 -12.44 7.38 C-14.75 6.95 -17.06 6.52 -19.37 6.09 C-20.38 5.9 -21.39 5.72 -22.43 5.52 C-25 5 -25 5 -28 4 C-28 3.34 -28 2.68 -28 2 C-27.11 2.02 -27.11 2.02 -26.21 2.03 C-23.54 2.07 -20.86 2.1 -18.19 2.12 C-16.79 2.15 -16.79 2.15 -15.37 2.18 C-14.48 2.18 -13.59 2.19 -12.67 2.2 C-11.85 2.21 -11.02 2.22 -10.18 2.23 C-6.25 1.82 -4.28 -0.23 0 0 Z " fill="#25206C" transform="translate(572,539)"/>
<path d="M0 0 C0.99 0.66 1.98 1.32 3 2 C1.5 5.45 -0.5 7.82 -3.06 10.56 C-6.24 14.03 -9.3 17.53 -12.25 21.19 C-16 25.82 -19.85 30.36 -23.75 34.88 C-24.29 35.51 -24.84 36.14 -25.4 36.79 C-28.47 40.33 -31.64 43.72 -35 47 C-35 46.34 -35 45.68 -35 45 C-36.32 44.67 -37.64 44.34 -39 44 C-38.34 43.01 -37.68 42.02 -37 41 C-36.34 41 -35.68 41 -35 41 C-34.67 40.34 -34.34 39.68 -34 39 C-34 39.66 -34 40.32 -34 41 C-33.34 41 -32.68 41 -32 41 C-32 40.01 -32 39.02 -32 38 C-31.34 38 -30.68 38 -30 38 C-30 37.34 -30 36.68 -30 36 C-29.34 36 -28.68 36 -28 36 C-28 35.34 -28 34.68 -28 34 C-27.34 34 -26.68 34 -26 34 C-26 33.34 -26 32.68 -26 32 C-25.34 32 -24.68 32 -24 32 C-23.86 31.38 -23.71 30.76 -23.56 30.12 C-23 28 -23 28 -22 26 C-21.34 26 -20.68 26 -20 26 C-20 25.34 -20 24.68 -20 24 C-19.34 24 -18.68 24 -18 24 C-18 23.34 -18 22.68 -18 22 C-17.34 22 -16.68 22 -16 22 C-15.9 21.36 -15.79 20.72 -15.69 20.06 C-15.46 19.38 -15.23 18.7 -15 18 C-14.01 17.67 -13.02 17.34 -12 17 C-11.67 16.01 -11.34 15.02 -11 14 C-10.01 14 -9.02 14 -8 14 C-8 12.68 -8 11.36 -8 10 C-6.68 10 -5.36 10 -4 10 C-4.5 6.53 -4.5 6.53 -5 3 C-4.34 3.99 -3.68 4.98 -3 6 C-0.86 3.86 -0.57 2.87 0 0 Z " fill="#4F4A85" transform="translate(455,531)"/>
<path d="M0 0 C0.33 0 0.66 0 1 0 C1.01 0.69 1.01 1.38 1.02 2.1 C1.08 8.66 1.15 15.22 1.24 21.78 C1.28 25.15 1.32 28.52 1.35 31.89 C1.38 35.78 1.43 39.67 1.49 43.55 C1.49 44.75 1.5 45.95 1.51 47.18 C1.63 54.26 2.52 60.35 5 67 C5.66 67 6.32 67 7 67 C7.33 68.32 7.66 69.64 8 71 C6.68 71 5.36 71 4 71 C4 71.66 4 72.32 4 73 C3.01 73 2.02 73 1 73 C0.57 72.04 0.57 72.04 0.12 71.06 C-0.83 68.85 -0.83 68.85 -3 68 C-3 67.01 -3 66.02 -3 65 C-4.98 65 -6.96 65 -9 65 C-8.34 63.35 -7.68 61.7 -7 60 C-5.35 60.66 -3.7 61.32 -2 62 C-1.26 58.02 -0.86 54.22 -0.79 50.18 C-0.76 48.5 -0.76 48.5 -0.73 46.78 C-0.71 44.99 -0.71 44.99 -0.68 43.16 C-0.65 41.31 -0.65 41.31 -0.62 39.42 C-0.56 35.49 -0.5 31.56 -0.44 27.62 C-0.39 24.95 -0.35 22.28 -0.31 19.61 C-0.2 13.08 -0.1 6.54 0 0 Z " fill="#3F3C73" transform="translate(890,501)"/>
<path d="M0 0 C2.15 3.23 2.2 4.28 2 8 C1.01 8 0.02 8 -1 8 C-0.73 9.98 -0.73 9.98 0 12 C0.99 12.33 1.98 12.66 3 13 C4.48 16.49 4.07 20.27 4 24 C3.01 24 2.02 24 1 24 C0.67 24.66 0.34 25.32 0 26 C-0.66 25.34 -1.32 24.68 -2 24 C-2.06 24.76 -2.12 25.52 -2.18 26.3 C-2.27 27.29 -2.35 28.29 -2.44 29.31 C-2.52 30.3 -2.6 31.28 -2.68 32.3 C-3 35 -3 35 -4 38 C-3.64 40.92 -3.32 43.36 -2 46 C-2.94 48.12 -2.94 48.12 -4 50 C-8.56 33.8 -6.91 15.24 0 0 Z " fill="#4D48A3" transform="translate(108,511)"/>
<path d="M0 0 C0.33 0.99 0.66 1.98 1 3 C4.51 4.23 4.51 4.23 8 5 C3.62 10.01 -3.04 11.72 -9.52 12.18 C-15.35 12.34 -21.17 12.21 -27 12 C-27 11.34 -27 10.68 -27 10 C-23.7 9.67 -20.4 9.34 -17 9 C-17 8.34 -17 7.68 -17 7 C-13.7 6.67 -10.4 6.34 -7 6 C-7.66 5.67 -8.32 5.34 -9 5 C-8.67 4.34 -8.34 3.68 -8 3 C-7.01 3.33 -6.02 3.66 -5 4 C-5 3.34 -5 2.68 -5 2 C-5.66 1.67 -6.32 1.34 -7 1 C-2.25 0 -2.25 0 0 0 Z " fill="#302A73" transform="translate(779,585)"/>
<path d="M0 0 C3.71 1.24 4.77 2.85 7 6 C7 6.66 7 7.32 7 8 C8.32 7.67 9.64 7.34 11 7 C11 7.99 11 8.98 11 10 C12.32 9.34 13.64 8.68 15 8 C15.33 8.66 15.66 9.32 16 10 C15.34 10 14.68 10 14 10 C14.33 10.66 14.66 11.32 15 12 C18.09 12.48 18.09 12.48 21.88 12.62 C22.57 12.66 23.27 12.7 23.99 12.74 C32.66 13.16 41.33 13.08 50 13 C46.18 15.47 42.15 15.44 37.75 15.62 C35.19 15.75 32.63 15.87 30 16 C37.92 16 45.84 16 54 16 C54 16.33 54 16.66 54 17 C38.21 19.24 21.96 19.65 8 11 C4.9 8.3 2.26 5.44 0 2 C0 1.34 0 0.68 0 0 Z " fill="#545085" transform="translate(867,578)"/>
<path d="M0 0 C0.99 0.33 1.98 0.66 3 1 C3 1.66 3 2.32 3 3 C3.99 3 4.98 3 6 3 C6 3.66 6 4.32 6 5 C5.34 5 4.68 5 4 5 C4 5.66 4 6.32 4 7 C2 8.62 2 8.62 0 10 C-0.66 9.67 -1.32 9.34 -2 9 C-2.34 9.96 -2.34 9.96 -2.69 10.94 C-3.34 11.96 -3.34 11.96 -4 13 C-5.65 13.33 -7.3 13.66 -9 14 C-9.66 18.62 -10.32 23.24 -11 28 C-15.94 26.02 -17.08 25.11 -20 21 C-19.01 21 -18.02 21 -17 21 C-15.62 19.61 -15.62 19.61 -14.38 17.69 C-11.79 14.05 -9.08 10.57 -6.25 7.12 C-5.49 6.2 -4.73 5.27 -3.95 4.32 C-2 2 -2 2 0 0 Z M-1 3 C0 5 0 5 0 5 Z " fill="#804FDF" transform="translate(326,431)"/>
<path d="M0 0 C3 1 3 1 4.35 3 C4.77 3.85 5.19 4.69 5.62 5.56 C6.05 6.39 6.48 7.22 6.91 8.07 C8.28 11.75 8.62 15.09 9 19 C6 19.34 3 19.67 0 20 C-1.26 20.14 -1.26 20.14 -2.54 20.29 C-7.73 20.85 -12.78 21.1 -18 21 C-18 20.67 -18 20.34 -18 20 C-16.02 20 -14.04 20 -12 20 C-12 19.34 -12 18.68 -12 18 C-11.29 18.02 -10.57 18.05 -9.84 18.07 C-4.12 18.18 0.6 17.92 6 16 C6 15.01 6 14.02 6 13 C5.01 12.67 4.02 12.34 3 12 C1.81 9.94 1.81 9.94 1 8 C-0.32 8.33 -1.64 8.66 -3 9 C-3 7.68 -3 6.36 -3 5 C-3.66 5 -4.32 5 -5 5 C-5 4.01 -5 3.02 -5 2 C-4.36 1.86 -3.72 1.71 -3.06 1.56 C-1.02 1.19 -1.02 1.19 0 0 Z " fill="#25206C" transform="translate(604,491)"/>
<path d="M0 0 C4.11 -0.02 8.22 -0.04 12.34 -0.05 C13.73 -0.06 15.13 -0.07 16.53 -0.08 C18.54 -0.09 20.55 -0.09 22.56 -0.1 C24.37 -0.11 24.37 -0.11 26.22 -0.11 C29 0 29 0 30 1 C30.09 2.71 30.11 4.42 30.1 6.13 C30.1 7.06 30.09 7.99 30.09 8.95 C30.08 10.14 30.07 11.33 30.06 12.56 C30.04 16.34 30.02 20.11 30 24 C19.77 24 9.54 24 -1 24 C-1 23.67 -1 23.34 -1 23 C8.9 23 18.8 23 29 23 C28.34 22.67 27.68 22.34 27 22 C27 15.4 27 8.8 27 2 C17.76 2 8.52 2 -1 2 C-0.67 1.34 -0.34 0.68 0 0 Z " fill="#6A6895" transform="translate(892,477)"/>
<path d="M0 0 C1.32 0.66 2.64 1.32 4 2 C3.92 4.79 3.44 6.52 1.55 8.6 C-4.55 13.99 -9.43 15.3 -17.58 15.2 C-18.4 15.19 -19.21 15.19 -20.05 15.19 C-22.64 15.18 -25.22 15.15 -27.81 15.12 C-29.57 15.11 -31.33 15.11 -33.09 15.1 C-37.39 15.08 -41.7 15.04 -46 15 C-45.67 14.01 -45.34 13.02 -45 12 C-44.67 12.66 -44.34 13.32 -44 14 C-39.05 13.67 -34.1 13.34 -29 13 C-29 12.67 -29 12.34 -29 12 C-21.41 11.67 -13.82 11.34 -6 11 C-6 10.01 -6 9.02 -6 8 C-5.05 5.98 -4.05 3.97 -3 2 C-2.34 2.33 -1.68 2.66 -1 3 C-1.33 3.33 -1.66 3.66 -2 4 C-1.01 4.33 -0.02 4.66 1 5 C0.5 2.52 0.5 2.52 0 0 Z " fill="#575497" transform="translate(391,603)"/>
<path d="M0 0 C3.84 1.35 6.65 3.08 9.81 5.62 C11 6.57 11 6.57 12.21 7.54 C12.8 8.02 13.39 8.5 14 9 C12.48 13.86 9.67 17.06 6.38 20.81 C5.86 21.41 5.34 22.01 4.81 22.62 C3.55 24.09 2.27 25.54 1 27 C0.67 25.68 0.34 24.36 0 23 C1.32 22.67 2.64 22.34 4 22 C4.77 20.16 4.77 20.16 5 18 C3.65 16.23 3.65 16.23 2 15 C2.66 13.68 3.32 12.36 4 11 C4.66 11 5.32 11 6 11 C6 10.34 6 9.68 6 9 C6.66 9 7.32 9 8 9 C8 8.01 8 7.02 8 6 C5.36 5.67 2.72 5.34 0 5 C-0.33 4.01 -0.66 3.02 -1 2 C-0.67 1.34 -0.34 0.68 0 0 Z " fill="#342B96" transform="translate(313,419)"/>
<path d="M0 0 C0.33 0 0.66 0 1 0 C1 20.79 1 41.58 1 63 C0.34 63 -0.32 63 -1 63 C-2.07 59.8 -2.09 57.62 -2.04 54.26 C-2.02 53.08 -2 51.9 -1.99 50.69 C-1.96 49.42 -1.94 48.15 -1.91 46.84 C-1.89 45.53 -1.87 44.23 -1.85 42.89 C-1.8 40.13 -1.76 37.38 -1.7 34.62 C-1.64 31.08 -1.58 27.54 -1.53 24 C-1.47 20.64 -1.41 17.27 -1.35 13.9 C-1.32 11.98 -1.32 11.98 -1.29 10.03 C-1.27 8.86 -1.25 7.69 -1.22 6.48 C-1.19 4.93 -1.19 4.93 -1.16 3.34 C-1 1 -1 1 0 0 Z " fill="#8C88B3" transform="translate(799,430)"/>
<path d="M0 0 C1.1 0.01 2.19 0.02 3.32 0.03 C5.98 0.05 8.65 0.08 11.31 0.12 C11.81 1.12 11.81 1.12 12.31 2.12 C13.96 2.12 15.61 2.12 17.31 2.12 C11.97 5.34 5.74 4.68 -0.31 4.88 C-2.19 4.96 -2.19 4.96 -4.11 5.04 C-5.3 5.09 -6.5 5.13 -7.73 5.17 C-8.82 5.21 -9.92 5.25 -11.05 5.29 C-13.69 5.12 -13.69 5.12 -15.69 3.12 C-15.69 3.79 -15.69 4.44 -15.69 5.12 C-16.35 5.12 -17.01 5.12 -17.69 5.12 C-18.02 6.12 -18.35 7.11 -18.69 8.12 C-18.69 7.13 -18.69 6.14 -18.69 5.12 C-21.33 5.12 -23.97 5.12 -26.69 5.12 C-25.7 4.8 -24.71 4.46 -23.69 4.12 C-23.69 3.46 -23.69 2.81 -23.69 2.12 C-15.71 0.36 -8.16 -0.13 0 0 Z " fill="#4744A1" transform="translate(264.6875,405.875)"/>
<path d="M0 0 C0.33 0 0.66 0 1 0 C1 12.21 1 24.42 1 37 C-5.6 37 -12.2 37 -19 37 C-19.33 43.93 -19.66 50.86 -20 58 C-20.33 58 -20.66 58 -21 58 C-21.03 54.19 -21.05 50.38 -21.06 46.56 C-21.07 45.47 -21.08 44.39 -21.09 43.26 C-21.09 42.23 -21.09 41.19 -21.1 40.13 C-21.1 39.17 -21.11 38.21 -21.11 37.22 C-21 35 -21 35 -20 34 C-18.51 33.91 -17.02 33.89 -15.53 33.9 C-14.72 33.9 -13.91 33.91 -13.07 33.91 C-12.04 33.92 -11 33.93 -9.94 33.94 C-6.66 33.96 -3.38 33.98 0 34 C0 22.78 0 11.56 0 0 Z " fill="#726FA7" transform="translate(863,443)"/>
<path d="M0 0 C0.66 0 1.32 0 2 0 C3.46 5.36 2.46 7.81 -0.25 12.56 C-3.84 19.15 -5.71 25.58 -7 33 C-8.55 30.68 -9.8 28.49 -11 26 C-10.01 26 -9.02 26 -8 26 C-8 24.02 -8 22.04 -8 20 C-7.34 20 -6.68 20 -6 20 C-6.37 18.27 -6.37 18.27 -6.75 16.5 C-7.53 10.43 -4.57 6.42 -1.38 1.5 C-0.92 1 -0.47 0.51 0 0 Z " fill="#3F3C8C" transform="translate(205,463)"/>
<path d="M0 0 C0.99 0 1.98 0 3 0 C2.58 4.83 0.27 7.31 -3 10.62 C-4 11.68 -5.01 12.73 -6 13.79 C-6.76 14.59 -6.76 14.59 -7.53 15.4 C-10.53 18.67 -13.26 22.15 -16.03 25.62 C-17.92 27.9 -19.8 30.02 -22 32 C-22.66 32 -23.32 32 -24 32 C-24 30.68 -24 29.36 -24 28 C-23.36 27.73 -22.72 27.46 -22.06 27.19 C-19.67 26.11 -19.67 26.11 -19 23 C-18.34 23 -17.68 23 -17 23 C-17 22.01 -17 21.02 -17 20 C-15.68 20 -14.36 20 -13 20 C-12.67 17.69 -12.34 15.38 -12 13 C-11.01 13.33 -10.02 13.66 -9 14 C-9 13.34 -9 12.68 -9 12 C-8.34 12 -7.68 12 -7 12 C-6.78 11.07 -6.78 11.07 -6.56 10.12 C-6 8 -6 8 -5 6 C-4.34 6 -3.68 6 -3 6 C-3 5.34 -3 4.68 -3 4 C-2.01 4 -1.02 4 0 4 C0 2.68 0 1.36 0 0 Z " fill="#5D57A6" transform="translate(344,573)"/>
<path d="M0 0 C4.06 1.35 4.71 3.43 7 7 C9.75 10.57 12.75 13.87 16 17 C11.53 16.49 9.46 14.76 6 12 C2.63 10.93 0.35 10.88 -3 12 C-3 11.34 -3 10.68 -3 10 C-4.32 10 -5.64 10 -7 10 C-6.67 9.01 -6.34 8.02 -6 7 C-5.01 6.67 -4.02 6.34 -3 6 C-1.29 3 -1.29 3 0 0 Z " fill="#393594" transform="translate(138,562)"/>
<path d="M0 0 C0 0.99 0 1.98 0 3 C-3.32 4.02 -6.18 4.04 -9.64 3.88 C-11.25 3.81 -11.25 3.81 -12.88 3.73 C-14.55 3.65 -14.55 3.65 -16.25 3.56 C-17.94 3.48 -17.94 3.48 -19.66 3.4 C-22.44 3.27 -25.22 3.14 -28 3 C-28.33 2.34 -28.66 1.68 -29 1 C-21.06 -3.96 -8.59 -2.46 0 0 Z " fill="#383279" transform="translate(777,476)"/>
<path d="M0 0 C5.75 -0.12 5.75 -0.12 8 1 C8 8.92 8 16.84 8 25 C7.34 25 6.68 25 6 25 C5.66 22.56 5.33 20.13 5 17.69 C4.9 17 4.81 16.31 4.71 15.6 C4.32 12.7 4 9.92 4 7 C2.35 6.67 0.7 6.34 -1 6 C-0.67 4.02 -0.34 2.04 0 0 Z " fill="#413E71" transform="translate(694,428)"/>
<path d="M0 0 C-0.33 1.65 -0.66 3.3 -1 5 C-0.01 5 0.98 5 2 5 C2 5.66 2 6.32 2 7 C1.01 7 0.02 7 -1 7 C-1.1 7.76 -1.21 8.53 -1.31 9.31 C-2.04 12.17 -2.77 13.16 -5 15 C-8 10.25 -8 10.25 -8 8 C-8.66 8 -9.32 8 -10 8 C-9.67 7.34 -9.34 6.68 -9 6 C-13.95 5.67 -18.9 5.34 -24 5 C-24 4.67 -24 4.34 -24 4 C-18.72 4 -13.44 4 -8 4 C-8 3.01 -8 2.02 -8 1 C-5.07 0.02 -3.04 -0.08 0 0 Z " fill="#251E6F" transform="translate(784,571)"/>
<path d="M0 0 C2.72 0.08 4.49 0.56 6.56 2.34 C13.45 9.91 14.82 17.95 15 28 C14.83 30.42 14.49 32.62 14 35 C13.34 35 12.68 35 12 35 C11.94 33.78 11.88 32.57 11.82 31.32 C11.73 29.73 11.65 28.15 11.56 26.56 C11.52 25.76 11.48 24.96 11.44 24.13 C11.59 20.25 11.59 20.25 10 17 C9.96 15.33 9.96 13.67 10 12 C9.34 12 8.68 12 8 12 C5.12 5.38 5.12 5.38 4 2 C2.68 2 1.36 2 0 2 C0 1.34 0 0.68 0 0 Z " fill="#504D79" transform="translate(601,534)"/>
<path d="M0 0 C0.99 0 1.98 0 3 0 C3 0.66 3 1.32 3 2 C4.98 1.67 6.96 1.34 9 1 C9.33 2.32 9.66 3.64 10 5 C9.31 5.32 8.62 5.63 7.91 5.96 C-1.78 10.77 -8.41 17.14 -13 27 C-13.98 23.95 -13.98 22.05 -13 19 C-11.68 18.67 -10.36 18.34 -9 18 C-9 17.34 -9 16.68 -9 16 C-9.66 16 -10.32 16 -11 16 C-11 15.34 -11 14.68 -11 14 C-9.02 13.67 -7.04 13.34 -5 13 C-4.34 11.02 -3.68 9.04 -3 7 C-1.68 7 -0.36 7 1 7 C1 6.34 1 5.68 1 5 C1.99 5 2.98 5 4 5 C4 4.34 4 3.68 4 3 C3.34 3 2.68 3 2 3 C2 2.34 2 1.68 2 1 C1.34 0.67 0.68 0.34 0 0 Z " fill="#4E4A85" transform="translate(152,496)"/>
<path d="M0 0 C2.97 0.5 2.97 0.5 6 1 C6.66 2.98 7.32 4.96 8 7 C7.01 7.5 7.01 7.5 6 8 C4.95 9.98 3.95 11.97 3 14 C1.35 14 -0.3 14 -2 14 C-2 11.69 -2 9.38 -2 7 C-1.34 6.67 -0.68 6.34 0 6 C0 5.34 0 4.68 0 4 C-0.66 4 -1.32 4 -2 4 C-1.34 2.68 -0.68 1.36 0 0 Z " fill="#2F2B90" transform="translate(389,416)"/>
<path d="M0 0 C3 2 3 2 4 5 C4.66 5.33 5.32 5.66 6 6 C6 6.99 6 7.98 6 9 C0.55 11.78 -3.88 12.65 -10 12 C-10.66 11.67 -11.32 11.34 -12 11 C-12 11.66 -12 12.32 -12 13 C-13.98 13 -15.96 13 -18 13 C-17.67 12.34 -17.34 11.68 -17 11 C-14.98 10.71 -12.95 10.43 -10.91 10.25 C-8.92 10.1 -8.92 10.1 -7 9 C-5.34 8.64 -3.67 8.31 -2 8 C-1.34 5.36 -0.68 2.72 0 0 Z " fill="#262070" transform="translate(604,498)"/>
<path d="M0 0 C-1.32 2.86 -2.79 5.12 -4.86 7.5 C-5.42 8.14 -5.98 8.78 -6.55 9.44 C-7.13 10.1 -7.71 10.76 -8.31 11.44 C-8.88 12.09 -9.45 12.75 -10.04 13.42 C-13.24 17.09 -16.52 20.61 -20 24 C-20 23.01 -20 22.02 -20 21 C-19.34 21 -18.68 21 -18 21 C-18.5 18.52 -18.5 18.52 -19 16 C-17.35 16 -15.7 16 -14 16 C-14 15.34 -14 14.68 -14 14 C-13.34 14 -12.68 14 -12 14 C-12 12.68 -12 11.36 -12 10 C-11.34 10 -10.68 10 -10 10 C-10 8.68 -10 7.36 -10 6 C-9.01 6 -8.02 6 -7 6 C-7 4.35 -7 2.7 -7 1 C-4 0 -4 0 0 0 Z " fill="#494588" transform="translate(417,581)"/>
<path d="M0 0 C1.02 0.01 2.04 0.01 3.1 0.02 C4.15 0.04 5.21 0.05 6.29 0.07 C7.37 0.08 8.44 0.09 9.55 0.1 C12.19 0.12 14.84 0.15 17.48 0.2 C17.48 0.86 17.48 1.52 17.48 2.2 C19.13 1.87 20.78 1.54 22.48 1.2 C22.48 2.19 22.48 3.18 22.48 4.2 C21.75 4.12 21.03 4.05 20.28 3.98 C9.37 2.97 -0.82 2.54 -11.52 5.2 C-10.52 2.2 -10.52 2.2 -8.3 1.02 C-5.37 0.15 -3.05 -0.03 0 0 Z " fill="#524F86" transform="translate(174.51953125,494.8046875)"/>
<path d="M0 0 C1.65 0.66 3.3 1.32 5 2 C5 2.33 5 2.66 5 3 C4.02 3.26 4.02 3.26 3.02 3.52 C-5.52 5.88 -10.58 8.89 -15.7 16.2 C-17 18 -17 18 -19 20 C-18.67 17.36 -18.34 14.72 -18 12 C-17.34 12 -16.68 12 -16 12 C-16 10.68 -16 9.36 -16 8 C-15.34 8 -14.68 8 -14 8 C-13.67 7.34 -13.34 6.68 -13 6 C-10 4 -10 4 -6 4 C-6 3.34 -6 2.68 -6 2 C-4.02 2 -2.04 2 0 2 C0 1.34 0 0.68 0 0 Z " fill="#383569" transform="translate(759,497)"/>
<path d="M0 0 C0 5.94 0 11.88 0 18 C13.37 18.5 13.37 18.5 27 19 C27 19.33 27 19.66 27 20 C17.1 20 7.2 20 -3 20 C-3 13.73 -3 7.46 -3 1 C-1 0 -1 0 0 0 Z " fill="#8987AC" transform="translate(674,458)"/>
<path d="M0 0 C3.88 1.88 3.88 1.88 5 3 C5.33 2.01 5.66 1.02 6 0 C6 0.66 6 1.32 6 2 C6.66 2 7.32 2 8 2 C8.23 3.05 8.45 4.1 8.69 5.19 C9.79 9.18 12.01 11.16 15 14 C15 14.99 15 15.98 15 17 C15.62 17.1 16.24 17.21 16.88 17.31 C19 18 19 18 21 21 C20.01 21.33 19.02 21.66 18 22 C0 2.89 0 2.89 0 0 Z " fill="#534E9C" transform="translate(383,452)"/>
<path d="M0 0 C8.25 0 16.5 0 25 0 C25 0.66 25 1.32 25 2 C25.66 2.33 26.32 2.66 27 3 C19.08 3 11.16 3 3 3 C3 2.34 3 1.68 3 1 C2.01 0.67 1.02 0.34 0 0 Z " fill="#1E1868" transform="translate(552,476)"/>
<path d="M0 0 C0.66 0.33 1.32 0.66 2 1 C2 1.99 2 2.98 2 4 C2.89 4.29 3.77 4.58 4.69 4.88 C7.5 5.83 10.25 6.87 13 8 C12.34 9.98 11.68 11.96 11 14 C12.32 15.32 13.64 16.64 15 18 C12 18 12 18 10.48 16.65 C9.96 16.04 9.44 15.42 8.9 14.79 C8.33 14.12 7.75 13.45 7.16 12.77 C6.57 12.06 5.98 11.35 5.38 10.62 C4.78 9.93 4.18 9.23 3.56 8.51 C-0.83 3.34 -0.83 3.34 -2 1 C-1.34 0.67 -0.68 0.34 0 0 Z " fill="#423E97" transform="translate(369,433)"/>
<path d="M0 0 C1.15 0 2.31 0.01 3.5 0.01 C4.69 0.02 5.88 0.03 7.1 0.04 C8.92 0.04 8.92 0.04 10.78 0.05 C13.76 0.06 16.74 0.08 19.73 0.1 C19.4 1.09 19.07 2.08 18.73 3.1 C8.17 3.1 -2.39 3.1 -13.27 3.1 C-12.94 2.44 -12.61 1.78 -12.27 1.1 C-8.16 0.14 -4.21 -0.02 0 0 Z " fill="#282383" transform="translate(360.2734375,613.90234375)"/>
<path d="M0 0 C1.55 3.11 0.59 5.74 0.06 9.12 C-0.13 10.41 -0.33 11.69 -0.53 13.01 C-0.68 14 -0.84 14.98 -1 16 C-5.38 14.45 -7.29 12.81 -10 9 C-9.01 9 -8.02 9 -7 9 C-5.35 7.27 -5.35 7.27 -3.88 5.06 C-3.1 3.97 -3.1 3.97 -2.3 2.85 C-1.87 2.24 -1.44 1.63 -1 1 C-0.67 0.67 -0.34 0.34 0 0 Z " fill="#6A42D2" transform="translate(316,443)"/>
<path d="M0 0 C0.33 0.66 0.66 1.32 1 2 C3.53 2.66 3.53 2.66 6 3 C6 4.32 6 5.64 6 7 C5.34 7 4.68 7 4 7 C4 7.66 4 8.32 4 9 C3.34 9 2.68 9 2 9 C2 9.66 2 10.32 2 11 C0 11 0 11 -1.62 9.5 C-2.08 9 -2.53 8.51 -3 8 C-3.33 8.99 -3.66 9.98 -4 11 C-4.66 11 -5.32 11 -6 11 C-4.55 6.89 -2.49 3.57 0 0 Z " fill="#423D9D" transform="translate(116,497)"/>
<path d="M0 0 C0.99 0.33 1.98 0.66 3 1 C1.44 3.73 -0.15 6.18 -2.12 8.62 C-4.17 10.94 -4.17 10.94 -5 14 C-7.31 14 -9.62 14 -12 14 C-12.33 13.01 -12.66 12.02 -13 11 C-12.4 10.62 -11.79 10.25 -11.17 9.86 C-6.69 6.99 -3.03 4.48 0 0 Z " fill="#4F44BF" transform="translate(308,571)"/>
<path d="M0 0 C-1 3 -1 3 -2.58 4.18 C-5.96 5.33 -9.22 5.21 -12.75 5.12 C-13.45 5.12 -14.14 5.11 -14.86 5.1 C-16.58 5.07 -18.29 5.04 -20 5 C-20 5.66 -20 6.32 -20 7 C-22.31 7.66 -24.62 8.32 -27 9 C-27 6.69 -27 4.38 -27 2 C-25.05 2.03 -25.05 2.03 -23.05 2.07 C-21.33 2.09 -19.6 2.11 -17.88 2.12 C-17.02 2.14 -16.16 2.16 -15.28 2.18 C-9.91 2.22 -5.07 0 0 0 Z " fill="#332E78" transform="translate(581,572)"/>
<path d="M0 0 C0.58 0.17 1.15 0.33 1.75 0.5 C4.27 1.14 4.27 1.14 8 1 C7.01 1.5 7.01 1.5 6 2 C6.98 4.45 7.65 5.77 9.88 7.25 C12.25 8.22 12.25 8.22 16 8 C15.67 10.31 15.34 12.62 15 15 C12 15 12 15 10.56 13.73 C9.83 12.86 9.83 12.86 9.08 11.97 C8.28 11.03 8.28 11.03 7.47 10.07 C6.92 9.41 6.38 8.75 5.81 8.06 C5.25 7.4 4.69 6.74 4.12 6.06 C0 1.16 0 1.16 0 0 Z " fill="#453F98" transform="translate(352,416)"/>
<path d="M0 0 C1.32 0.33 2.64 0.66 4 1 C-7.87 15.7 -7.87 15.7 -13 21 C-13.33 21 -13.66 21 -14 21 C-14 19.35 -14 17.7 -14 16 C-12.68 16 -11.36 16 -10 16 C-10 14.68 -10 13.36 -10 12 C-9.34 12 -8.68 12 -8 12 C-8 11.34 -8 10.68 -8 10 C-7.01 9.34 -6.02 8.68 -5 8 C-4.28 5.94 -4.28 5.94 -4 4 C-2.68 4 -1.36 4 0 4 C0 2.68 0 1.36 0 0 Z " fill="#8C70C0" transform="translate(377,535)"/>
<path d="M0 0 C0.66 0.33 1.32 0.66 2 1 C2 2.65 2 4.3 2 6 C2.99 6 3.98 6 5 6 C5.33 7.65 5.66 9.3 6 11 C4.68 11 3.36 11 2 11 C1.67 10.01 1.34 9.02 1 8 C1 8.99 1 9.98 1 11 C0.01 11 -0.98 11 -2 11 C-2 10.34 -2 9.68 -2 9 C-2.66 9 -3.32 9 -4 9 C-4 8.34 -4 7.68 -4 7 C-4.66 7 -5.32 7 -6 7 C-5 4 -5 4 -3 2.94 C-2.34 2.63 -1.68 2.32 -1 2 C-0.67 1.34 -0.34 0.68 0 0 Z " fill="#231E6D" transform="translate(733,543)"/>
<path d="M0 0 C3.71 1.24 4.77 2.85 7 6 C7 6.66 7 7.32 7 8 C8.32 7.67 9.64 7.34 11 7 C11 7.99 11 8.98 11 10 C12.32 9.34 13.64 8.68 15 8 C15.33 8.66 15.66 9.32 16 10 C15.34 10 14.68 10 14 10 C15.26 12.51 16.5 12.87 19 14 C16.35 15.03 15.28 15.11 12.6 14.03 C6.98 10.64 3.3 7.72 0 2 C0 1.34 0 0.68 0 0 Z " fill="#3D3A73" transform="translate(867,578)"/>
<path d="M0 0 C1.98 0.11 3.96 0.24 5.94 0.38 C7.59 0.48 7.59 0.48 9.28 0.59 C10.18 0.72 11.07 0.86 12 1 C12.33 1.66 12.66 2.32 13 3 C9.8 5.14 9 5.24 5.33 5.2 C3.99 5.19 3.99 5.19 2.63 5.18 C1.23 5.15 1.23 5.15 -0.19 5.12 C-1.13 5.12 -2.07 5.11 -3.04 5.1 C-5.36 5.07 -7.68 5.04 -10 5 C-10 4.34 -10 3.68 -10 3 C-6.7 2.67 -3.4 2.34 0 2 C0 1.34 0 0.68 0 0 Z " fill="#403C6C" transform="translate(762,592)"/>
<path d="M0 0 C2.97 0.5 2.97 0.5 6 1 C6 1.99 6 2.98 6 4 C6.99 4.33 7.98 4.66 9 5 C10.67 5.66 12.34 6.33 14 7 C14 7.99 14 8.98 14 10 C14.66 10 15.32 10 16 10 C16 9.34 16 8.68 16 8 C16.66 8.33 17.32 8.66 18 9 C18.62 11.56 18.62 11.56 19 14 C11.15 11.07 4.97 6.74 0 0 Z " fill="#46427B" transform="translate(722,579)"/>
<path d="M0 0 C0.33 0.99 0.66 1.98 1 3 C2.32 3 3.64 3 5 3 C4.5 6.69 3.9 8.6 1 11 C1 10.34 1 9.68 1 9 C-2.27 9 -4.85 9.3 -8 10 C-7.04 8.71 -6.08 7.42 -5.12 6.12 C-4.59 5.41 -4.06 4.69 -3.51 3.95 C-2 2 -2 2 0 0 Z " fill="#403B9D" transform="translate(380,575)"/>
<path d="M0 0 C0.33 0 0.66 0 1 0 C1.33 1.98 1.66 3.96 2 6 C3.65 6.33 5.3 6.66 7 7 C7 8.32 7 9.64 7 11 C0.8 9.53 -4.07 5.89 -9 2 C-9 1.67 -9 1.34 -9 1 C-7.7 1.02 -6.4 1.04 -5.06 1.06 C-3.71 1.08 -2.35 1.07 -1 1 C-0.67 0.67 -0.34 0.34 0 0 Z " fill="#3F3979" transform="translate(532,582)"/>
<path d="M0 0 C0.99 0.33 1.98 0.66 3 1 C2.98 1.6 2.95 2.21 2.93 2.83 C2.91 3.63 2.89 4.43 2.88 5.25 C2.85 6.04 2.83 6.83 2.8 7.64 C3.02 10.23 3.82 11.71 5 14 C5.08 16.33 5.09 18.67 5 21 C4.67 21 4.34 21 4 21 C3.57 22.7 3.57 22.7 3.12 24.44 C2.75 25.61 2.38 26.79 2 28 C1.34 28.33 0.68 28.66 0 29 C0.08 27.83 0.17 26.66 0.25 25.45 C0.83 16.86 1.23 8.57 0 0 Z " fill="#544E8D" transform="translate(797,522)"/>
<path d="M0 0 C0.33 0 0.66 0 1 0 C1.09 0.6 1.17 1.21 1.26 1.83 C2.21 7.28 2.21 7.28 5.62 11.56 C6.41 12.04 7.19 12.51 8 13 C6.68 13 5.36 13 4 13 C4 13.66 4 14.32 4 15 C3.01 15 2.02 15 1 15 C0.67 13.02 0.34 11.04 0 9 C-1.32 9.33 -2.64 9.66 -4 10 C-5.43 7.14 -4.6 5.07 -4 2 C-3.34 2 -2.68 2 -2 2 C-2 3.32 -2 4.64 -2 6 C-1.34 6 -0.68 6 0 6 C0 4.02 0 2.04 0 0 Z " fill="#3B3779" transform="translate(543,506)"/>
<path d="M0 0 C3.97 1.58 6.24 4.17 9.06 7.31 C9.92 8.26 10.78 9.2 11.66 10.18 C13.75 12.69 15.42 15.15 17 18 C14 18 14 18 12.44 16.56 C11.96 16.05 11.49 15.53 11 15 C10.34 14.67 9.68 14.34 9 14 C8.69 13.36 8.38 12.72 8.06 12.06 C7.05 9.68 7.05 9.68 4 8 C2.22 5.34 1.01 3.04 0 0 Z " fill="#8F6DD5" transform="translate(339,442)"/>
<path d="M0 0 C2.88 2.8 5.68 5.65 8.38 8.62 C9.16 9.48 9.16 9.48 9.96 10.35 C10.3 10.9 10.65 11.44 11 12 C10.67 12.99 10.34 13.98 10 15 C9.34 15 8.68 15 8 15 C6.38 12.5 6.38 12.5 5 10 C3.02 10.33 1.04 10.66 -1 11 C-0.75 9.82 -0.75 9.82 -0.5 8.62 C0.06 6.12 0.06 6.12 0 4 C0 2.68 0 1.36 0 0 Z " fill="#4B4899" transform="translate(395,417)"/>
<path d="M0 0 C0.33 0.66 0.66 1.32 1 2 C1.66 2.33 2.32 2.66 3 3 C2.67 3.66 2.34 4.32 2 5 C2.66 5 3.32 5 4 5 C4 3.68 4 2.36 4 1 C4.99 1 5.98 1 7 1 C7 6 7 11 7 16 C7.66 16.33 8.32 16.66 9 17 C8.01 17 7.02 17 6 17 C4.99 14.73 3.99 12.46 3 10.19 C2.71 9.54 2.43 8.9 2.13 8.24 C0.86 5.32 0 3.22 0 0 Z " fill="#4C48A0" transform="translate(105,562)"/>
<path d="M0 0 C2.09 3.4 2.18 6.05 2 10 C1.01 10.5 1.01 10.5 0 11 C-0.65 13.02 -0.65 13.02 -1 15 C-1.99 15 -2.98 15 -4 15 C-4.66 15.99 -5.32 16.98 -6 18 C-5.5 12.29 -4.2 4.2 0 0 Z " fill="#494388" transform="translate(716,501)"/>
<path d="M0 0 C5.61 0 11.22 0 17 0 C17 0.66 17 1.32 17 2 C18.32 2.66 19.64 3.32 21 4 C13.27 4.32 7.06 4.32 0 1 C0 0.67 0 0.34 0 0 Z " fill="#201B69" transform="translate(677,428)"/>
<path d="M0 0 C-1.54 3.57 -3.69 6.08 -6.31 8.94 C-7.11 9.81 -7.91 10.68 -8.73 11.58 C-11.11 14.11 -13.51 16.59 -16 19 C-16 18.01 -16 17.02 -16 16 C-15.34 16 -14.68 16 -14 16 C-14 15.01 -14 14.02 -14 13 C-13.34 13 -12.68 13 -12 13 C-12 11.68 -12 10.36 -12 9 C-11.34 9 -10.68 9 -10 9 C-10 8.34 -10 7.68 -10 7 C-9.01 6.67 -8.02 6.34 -7 6 C-6.67 5.01 -6.34 4.02 -6 3 C-2.56 0 -2.56 0 0 0 Z " fill="#8A73BA" transform="translate(363,556)"/>
<path d="M0 0 C1.76 3.09 2 4.23 2 8 C-1 8.34 -4 8.67 -7 9 C-8.26 9.14 -8.26 9.14 -9.54 9.29 C-14.73 9.85 -19.78 10.1 -25 10 C-25 9.67 -25 9.34 -25 9 C-23.02 9 -21.04 9 -19 9 C-19 8.34 -19 7.68 -19 7 C-18.29 7.02 -17.57 7.05 -16.84 7.07 C-11.12 7.18 -6.4 6.92 -1 5 C-0.67 3.35 -0.34 1.7 0 0 Z " fill="#524F79" transform="translate(611,502)"/>
<path d="M0 0 C0.05 1.62 0.09 3.25 0.12 4.88 C0.15 5.78 0.17 6.68 0.2 7.62 C0 10 0 10 -2 12 C-2.99 11.67 -3.98 11.34 -5 11 C-5.99 11.5 -5.99 11.5 -7 12 C-6.39 8.44 -5.58 5.25 -4 2 C-1 0 -1 0 0 0 Z " fill="#342E7A" transform="translate(800,549)"/>
<path d="M0 0 C0.66 0 1.32 0 2 0 C2.33 0.66 2.66 1.32 3 2 C4.64 2.72 6.31 3.39 8 4 C7.67 5.65 7.34 7.3 7 9 C7.62 9.31 8.24 9.62 8.88 9.94 C10.25 10.62 11.62 11.31 13 12 C13 13.65 13 15.3 13 17 C8.08 12.23 3.56 7.11 -1 2 C-0.67 1.34 -0.34 0.68 0 0 Z " fill="#59559E" transform="translate(403,474)"/>
<path d="M0 0 C5.27 -0.27 9.93 0.74 15 2 C15 2.66 15 3.32 15 4 C16.32 4 17.64 4 19 4 C19 4.66 19 5.32 19 6 C20.32 6 21.64 6 23 6 C23 6.99 23 7.98 23 9 C19.98 8 16.97 6.99 13.96 5.96 C12.97 5.63 11.97 5.29 10.94 4.94 C9.94 4.6 8.93 4.25 7.9 3.9 C5.27 3.09 2.71 2.48 0 2 C0 1.34 0 0.68 0 0 Z " fill="#575492" transform="translate(274,437)"/>
<path d="M0 0 C6.03 0.48 10.77 3.2 16 6 C13 8 13 8 10 8 C9.01 7.67 8.02 7.34 7 7 C7 6.34 7 5.68 7 5 C4.69 4.67 2.38 4.34 0 4 C0 2.68 0 1.36 0 0 Z " fill="#4C479F" transform="translate(297,412)"/>
<path d="M0 0 C1 4 1 4 1 6 C0.5 6.47 0.01 6.95 -0.5 7.44 C-2.35 9 -2.35 9 -2 12 C-3.98 12.33 -5.96 12.66 -8 13 C-8.33 12.34 -8.66 11.68 -9 11 C-6.03 7.37 -3.06 3.74 0 0 Z " fill="#3A379A" transform="translate(356,603)"/>
<path d="M0 0 C0.66 0 1.32 0 2 0 C2 1.98 2 3.96 2 6 C2.99 6 3.98 6 5 6 C5.33 4.35 5.66 2.7 6 1 C6.66 1 7.32 1 8 1 C8 1.66 8 2.32 8 3 C7.34 3 6.68 3 6 3 C6 5.97 6 8.94 6 12 C5.67 11.01 5.34 10.02 5 9 C4.01 9.33 3.02 9.66 2 10 C1.67 12.97 1.34 15.94 1 19 C0.67 19 0.34 19 0 19 C0 12.73 0 6.46 0 0 Z " fill="#1F1965" transform="translate(709,526)"/>
<path d="M0 0 C2.79 0.08 4.52 0.56 6.6 2.45 C10.28 6.62 13 10.26 13 16 C12.01 16.33 11.02 16.66 10 17 C10 15.35 10 13.7 10 12 C9.34 12 8.68 12 8 12 C5.12 5.38 5.12 5.38 4 2 C2.68 2 1.36 2 0 2 C0 1.34 0 0.68 0 0 Z " fill="#413E75" transform="translate(601,534)"/>
<path d="M0 0 C0.99 0.33 1.98 0.66 3 1 C4.55 5.64 4.99 10.48 3.18 15.11 C0.63 19.68 0.63 19.68 -2 21 C-1.33 18.33 -0.67 15.67 0 13 C0.66 13 1.32 13 2 13 C2 10.69 2 8.38 2 6 C1.34 6 0.68 6 0 6 C0 4.02 0 2.04 0 0 Z " fill="#5A568A" transform="translate(467,504)"/>
<path d="M0 0 C2 3 2 3 2 6 C1.01 6 0.02 6 -1 6 C-0.55 6.39 -0.09 6.78 0.38 7.19 C2.28 9.31 3.06 11.33 4 14 C3.34 14.66 2.68 15.32 2 16 C1.4 15.05 0.8 14.1 0.19 13.12 C-1.82 9.86 -1.82 9.86 -5 8 C-5 7.34 -5 6.68 -5 6 C-4.34 6 -3.68 6 -3 6 C-2.88 5.38 -2.75 4.76 -2.62 4.12 C-2 2 -2 2 0 0 Z " fill="#3F397C" transform="translate(790,497)"/>
<path d="M0 0 C0 0.99 0 1.98 0 3 C-2.88 3.12 -2.88 3.12 -6 3 C-6.66 2.34 -7.32 1.68 -8 1 C-8 1.66 -8 2.32 -8 3 C-9.86 2.97 -9.86 2.97 -11.75 2.94 C-14.04 2.93 -15.85 2.96 -18.06 3.56 C-21.13 4.25 -23.94 3.53 -27 3 C-27.5 4.98 -27.5 4.98 -28 7 C-28 5.35 -28 3.7 -28 2 C-25.02 1.66 -22.04 1.33 -19.06 1 C-18.23 0.9 -17.4 0.81 -16.54 0.71 C-10.99 0.11 -5.58 -0.09 0 0 Z " fill="#6C68A2" transform="translate(540,556)"/>
<path d="M0 0 C12.87 0 25.74 0 39 0 C39 0.33 39 0.66 39 1 C27.78 1.33 16.56 1.66 5 2 C4.67 3.32 4.34 4.64 4 6 C2.68 4.02 1.36 2.04 0 0 Z " fill="#6762B6" transform="translate(347,410)"/>
<path d="M0 0 C0.33 0.99 0.66 1.98 1 3 C0.34 3.66 -0.32 4.32 -1 5 C-1.17 7.58 -1.17 7.58 -1 10 C-1.66 10 -2.32 10 -3 10 C-3 10.66 -3 11.32 -3 12 C-6.75 13.12 -6.75 13.12 -9 12 C-7.56 8.76 -5.74 6.38 -3.38 3.75 C-2.74 3.04 -2.11 2.34 -1.46 1.61 C-0.98 1.08 -0.5 0.55 0 0 Z " fill="#514CA6" transform="translate(193,435)"/>
<path d="M0 0 C0.99 0 1.98 0 3 0 C1.23 6.29 -3.67 11.45 -9 15 C-9 13.68 -9 12.36 -9 11 C-8.01 11 -7.02 11 -6 11 C-5.86 10.4 -5.71 9.8 -5.56 9.19 C-5.11 7.44 -4.57 5.71 -4 4 C-3.01 3.67 -2.02 3.34 -1 3 C-0.67 2.01 -0.34 1.02 0 0 Z " fill="#4C4971" transform="translate(610,573)"/>
<path d="M0 0 C3.63 0 7.26 0 11 0 C11 0.33 11 0.66 11 1 C13.97 1.5 13.97 1.5 17 2 C17 2.99 17 3.98 17 5 C11.15 4.49 5.67 3.55 0 2 C0 1.34 0 0.68 0 0 Z " fill="#3C386C" transform="translate(544,541)"/>
<path d="M0 0 C2.64 0.33 5.28 0.66 8 1 C8 2.32 8 3.64 8 5 C8.66 5 9.32 5 10 5 C10.33 6.65 10.66 8.3 11 10 C8 10 8 10 5.96 8.07 C5.25 7.24 4.54 6.41 3.81 5.56 C3.1 4.74 2.38 3.92 1.64 3.07 C0 1 0 1 0 0 Z " fill="#9068DD" transform="translate(335,485)"/>
<path d="M0 0 C4.22 1.56 6.53 4.72 9.25 8.12 C9.94 8.97 9.94 8.97 10.64 9.83 C11.77 11.22 12.88 12.61 14 14 C13.34 14.66 12.68 15.32 12 16 C11.67 15.01 11.34 14.02 11 13 C10.04 12.85 10.04 12.85 9.06 12.69 C8.04 12.35 8.04 12.35 7 12 C6.33 10 5.67 8 5 6 C2.97 5.03 2.97 5.03 1 5 C0.5 2.52 0.5 2.52 0 0 Z " fill="#514D95" transform="translate(448,481)"/>
<path d="M0 0 C0.84 0 1.67 0.01 2.53 0.01 C4.58 0.03 6.64 0.04 8.69 0.06 C8.69 0.39 8.69 0.72 8.69 1.06 C0.77 1.56 0.77 1.56 -7.31 2.06 C-5 2.72 -2.69 3.38 -0.31 4.06 C-0.31 4.39 -0.31 4.72 -0.31 5.06 C-3.61 5.06 -6.91 5.06 -10.31 5.06 C-10.31 4.07 -10.31 3.08 -10.31 2.06 C-11.63 1.73 -12.95 1.4 -14.31 1.06 C-9.54 -0.17 -4.89 -0.05 0 0 Z " fill="#5A5595" transform="translate(685.3125,426.9375)"/>
<path d="M0 0 C2.14 3.48 2.21 6.21 2.12 10.25 C2.11 11.33 2.09 12.41 2.07 13.52 C2.04 14.75 2.04 14.75 2 16 C1.01 16 0.02 16 -1 16 C-1.03 13.71 -1.05 11.42 -1.06 9.12 C-1.07 7.85 -1.09 6.57 -1.1 5.26 C-1 2 -1 2 0 0 Z " fill="#211A65" transform="translate(734,525)"/>
<path d="M0 0 C-0.99 1.49 -0.99 1.49 -2 3 C-4.79 3.22 -7.35 3.28 -10.12 3.19 C-10.88 3.17 -11.63 3.16 -12.41 3.15 C-14.27 3.11 -16.14 3.06 -18 3 C-18.33 2.01 -18.66 1.02 -19 0 C-12.47 -1.11 -6.56 -0.78 0 0 Z " fill="#201C60" transform="translate(778,496)"/>
<path d="M0 0 C0.66 0 1.32 0 2 0 C2.69 3.72 3.11 7.21 3 11 C1.35 11.66 -0.3 12.32 -2 13 C-2.62 10.69 -2.62 10.69 -3 8 C-2.34 7.01 -1.68 6.02 -1 5 C-0.67 5.66 -0.34 6.32 0 7 C0 4.69 0 2.38 0 0 Z " fill="#2C288D" transform="translate(109,511)"/>
<path d="M0 0 C0.99 0.33 1.98 0.66 3 1 C3 1.66 3 2.32 3 3 C4.65 3 6.3 3 8 3 C8.72 4.73 9.43 6.45 10.15 8.18 C11.07 10.27 11.07 10.27 13 13 C10 13 10 13 7.77 10.92 C6.98 10.02 6.19 9.12 5.38 8.19 C4.58 7.29 3.78 6.4 2.96 5.48 C1 3 1 3 0 0 Z " fill="#504B98" transform="translate(419,494)"/>
<path d="M0 0 C0 0.66 0 1.32 0 2 C-0.66 2 -1.32 2 -2 2 C-2.33 3.32 -2.66 4.64 -3 6 C-6.3 6 -9.6 6 -13 6 C-9.24 2.24 -5.41 0 0 0 Z " fill="#544EA7" transform="translate(153,470)"/>
<path d="M0 0 C2 2 2 2 2 5 C1.01 5 0.02 5 -1 5 C-1.33 6.32 -1.66 7.64 -2 9 C-3.65 9.33 -5.3 9.66 -7 10 C-7 10.66 -7 11.32 -7 12 C-7.66 11.67 -8.32 11.34 -9 11 C-6.03 7.37 -3.06 3.74 0 0 Z " fill="#554FA9" transform="translate(390,563)"/>
<path d="M0 0 C2.21 0.01 3.99 1.79 4 4 C3.99 6.21 2.21 8 0 8 C-2.21 8 -3.99 6.21 -4 4 C-3.99 1.79 -2.21 0.01 0 0 Z " fill="#8661CC" transform="translate(383,524.99977924)"/>
<path d="M0 0 C1.6 3.2 0.77 6.61 0 10 C-0.99 11.49 -0.99 11.49 -2 13 C-2.66 13 -3.32 13 -4 13 C-4.66 11.68 -5.32 10.36 -6 9 C-4.02 6.03 -2.04 3.06 0 0 Z " fill="#514BA7" transform="translate(183,447)"/>
<path d="M0 0 C0.66 0 1.32 0 2 0 C0.61 4.18 -1.53 4.66 -5.38 6.69 C-6.54 7.31 -7.7 7.93 -8.9 8.57 C-12 10 -12 10 -15 10 C-15 9.34 -15 8.68 -15 8 C-12.69 7.34 -10.38 6.68 -8 6 C-8 5.34 -8 4.68 -8 4 C-6.68 4 -5.36 4 -4 4 C-4 3.34 -4 2.68 -4 2 C-2.68 2 -1.36 2 0 2 C0 1.34 0 0.68 0 0 Z " fill="#6964A1" transform="translate(317,605)"/>
<path d="M0 0 C0.66 0 1.32 0 2 0 C1.52 4.31 0.25 6.17 -3 9 C-3 8.34 -3 7.68 -3 7 C-4.32 6.67 -5.64 6.34 -7 6 C-6.34 5.01 -5.68 4.02 -5 3 C-4.34 3 -3.68 3 -3 3 C-2.67 2.34 -2.34 1.68 -2 1 C-2 1.66 -2 2.32 -2 3 C-1.34 3 -0.68 3 0 3 C0 2.01 0 1.02 0 0 Z " fill="#433D8A" transform="translate(423,569)"/>
<path d="M0 0 C2.77 0.01 4.99 2.23 5 5 C4.99 7.77 2.77 9.99 0 10 C-2.77 9.99 -4.99 7.77 -5 5 C-4.99 2.23 -2.77 0.01 0 0 Z " fill="#4B4692" transform="translate(157,495.99972405)"/>
<path d="M0 0 C0.66 0.33 1.32 0.66 2 1 C1.31 4.38 1.31 4.38 0 8 C-2.62 9.44 -2.62 9.44 -5 10 C-5.66 9.34 -6.32 8.68 -7 8 C-4.69 5.36 -2.38 2.72 0 0 Z " fill="#544FA6" transform="translate(126,485)"/>
<path d="M0 0 C-3.54 2.92 -7.16 5.5 -11 8 C-10.67 6.35 -10.34 4.7 -10 3 C-9.34 3 -8.68 3 -8 3 C-8 2.01 -8 1.02 -8 0 C-5.14 -1.43 -3.07 -0.6 0 0 Z " fill="#524D8C" transform="translate(231,446)"/>
<path d="M0 0 C2.97 0 5.94 0 9 0 C9 0.66 9 1.32 9 2 C3.39 3.32 -2.22 4.64 -8 6 C-8.33 5.34 -8.66 4.68 -9 4 C-6.03 3.34 -3.06 2.68 0 2 C0 1.34 0 0.68 0 0 Z " fill="#5A5889" transform="translate(245,437)"/>
<path d="M0 0 C5.09 1.59 8.87 4.74 13 8 C11.68 8.33 10.36 8.66 9 9 C8.67 8.01 8.34 7.02 8 6 C5.36 5.67 2.72 5.34 0 5 C-0.33 4.01 -0.66 3.02 -1 2 C-0.67 1.34 -0.34 0.68 0 0 Z " fill="#5651A1" transform="translate(313,419)"/>
<path d="M0 0 C1.32 0.33 2.64 0.66 4 1 C4 1.66 4 2.32 4 3 C4.66 3.33 5.32 3.66 6 4 C5.67 4.99 5.34 5.98 5 7 C7.47 7.99 7.47 7.99 10 9 C10 12 10 12 9 14 C7.49 12.05 6 10.09 4.5 8.12 C4.07 7.57 3.64 7.01 3.2 6.44 C0 2.23 0 2.23 0 0 Z " fill="#544F9E" transform="translate(113,580)"/>
<path d="M0 0 C1.98 0 3.96 0 6 0 C7.29 7.43 7.29 7.43 6 11 C5.01 11 4.02 11 3 11 C2.8 7.28 2.85 6.23 5 3 C3.35 2.67 1.7 2.34 0 2 C0 1.34 0 0.68 0 0 Z " fill="#211D6B" transform="translate(532,557)"/>
<path d="M0 0 C0.66 0 1.32 0 2 0 C1.5 4.46 -0.02 6.58 -3.06 9.81 C-4.16 11 -4.16 11 -5.29 12.21 C-5.85 12.8 -6.42 13.39 -7 14 C-7.33 13.01 -7.66 12.02 -8 11 C-7.34 11 -6.68 11 -6 11 C-6.5 8.52 -6.5 8.52 -7 6 C-5.35 6 -3.7 6 -2 6 C-2 5.34 -2 4.68 -2 4 C-1.34 4 -0.68 4 0 4 C0 2.68 0 1.36 0 0 Z " fill="#5B578B" transform="translate(405,591)"/>
<path d="M0 0 C1 3 1 3 0 6 C-1.56 7.69 -1.56 7.69 -3 9 C-2.34 9 -1.68 9 -1 9 C-1 9.66 -1 10.32 -1 11 C-2.65 11.33 -4.3 11.66 -6 12 C-6.33 11.01 -6.66 10.02 -7 9 C-5.57 6.74 -5.57 6.74 -3.56 4.31 C-2.9 3.5 -2.25 2.7 -1.57 1.86 C-1.05 1.25 -0.53 0.63 0 0 Z " fill="#9768E8" transform="translate(352,519)"/>
<path d="M0 0 C0.66 0 1.32 0 2 0 C1.87 0.57 1.73 1.14 1.6 1.73 C0.06 8.79 -0.57 15.79 -1 23 C-1.33 23 -1.66 23 -2 23 C-3 14.49 -3.42 7.94 0 0 Z " fill="#5E5B7B" transform="translate(738,518)"/>
<path d="M0 0 C7.43 1 7.43 1 11 2 C11 2.66 11 3.32 11 4 C12.32 4.66 13.64 5.32 15 6 C15 6.99 15 7.98 15 9 C14.34 8.58 13.67 8.16 12.99 7.72 C12.11 7.17 11.22 6.63 10.31 6.06 C9.44 5.52 8.57 4.97 7.68 4.41 C5.05 3.03 2.92 2.42 0 2 C0 1.34 0 0.68 0 0 Z " fill="#514D7C" transform="translate(568,495)"/>
<path d="M0 0 C2.44 -0.05 4.87 -0.09 7.31 -0.12 C8 -0.14 8.69 -0.16 9.4 -0.18 C13.17 -0.21 14.78 -0.14 18 2 C8.6 2.5 8.6 2.5 -1 3 C-0.67 2.01 -0.34 1.02 0 0 Z " fill="#2B2778" transform="translate(255,435)"/>
<path d="M0 0 C-1 3 -1 3 -2.96 4.17 C-3.76 4.5 -4.55 4.84 -5.38 5.19 C-6.17 5.53 -6.96 5.88 -7.77 6.23 C-10 7 -10 7 -13 7 C-13 6.01 -13 5.02 -13 4 C-9.07 1.8 -4.55 0 0 0 Z " fill="#48456D" transform="translate(600,587)"/>
<path d="M0 0 C1.98 3.47 2.23 5.88 1.62 9.89 C0.54 13.55 -1.61 16.06 -4 19 C-4.33 18.01 -4.66 17.02 -5 16 C-4.55 15.41 -4.1 14.81 -3.64 14.2 C-1.56 11.41 -1.3 9.18 -0.81 5.75 C-0.65 4.67 -0.5 3.59 -0.33 2.48 C-0.22 1.66 -0.11 0.84 0 0 Z " fill="#9C89C0" transform="translate(394,507)"/>
<path d="M0 0 C0.66 0.33 1.32 0.66 2 1 C0.02 3.97 0.02 3.97 -2 7 C-1.34 7.33 -0.68 7.66 0 8 C-0.99 8.99 -1.98 9.98 -3 11 C-3 10.34 -3 9.68 -3 9 C-4.65 9.33 -6.3 9.66 -8 10 C-6.35 5.71 -3.26 3.12 0 0 Z " fill="#4F4A8E" transform="translate(729,485)"/>
<path d="M0 0 C2.77 0.01 4.99 2.23 5 4 C4.99 6.77 2.77 8.99 0 9 C-2.21 9 -3.99 7.21 -4 4 C-3.99 1.79 -2.21 0.01 0 0 Z " fill="#2F2A90" transform="translate(415,444.99972405)"/>
<path d="M0 0 C3.05 1.02 3.9 1.72 6 4 C6.66 4.66 7.32 5.32 8 6 C8.62 8.62 8.62 8.62 9 11 C8.01 11 7.02 11 6 11 C4.39 9.1 4.39 9.1 2.81 6.62 C2.02 5.41 2.02 5.41 1.21 4.16 C0 2 0 2 0 0 Z " fill="#4D4986" transform="translate(714,566)"/>
<path d="M0 0 C1.98 0 3.96 0 6 0 C6 0.99 6 1.98 6 3 C5.34 3 4.68 3 4 3 C3.67 5.97 3.34 8.94 3 12 C2.67 12 2.34 12 2 12 C1.94 11.39 1.88 10.77 1.82 10.14 C1.73 9.33 1.65 8.52 1.56 7.69 C1.48 6.89 1.4 6.09 1.32 5.26 C1.05 2.84 1.05 2.84 0 0 Z " fill="#221D6C" transform="translate(586,551)"/>
<path d="M0 0 C0.99 0.66 1.98 1.32 3 2 C1.64 4.99 0.05 7.29 -2.12 9.75 C-2.93 10.67 -2.93 10.67 -3.76 11.61 C-4.17 12.07 -4.58 12.53 -5 13 C-5.33 12.01 -5.66 11.02 -6 10 C-5.34 10 -4.68 10 -4 10 C-4.33 7.69 -4.66 5.38 -5 3 C-4.01 4.49 -4.01 4.49 -3 6 C-0.86 3.86 -0.57 2.87 0 0 Z " fill="#565289" transform="translate(455,531)"/>
<path d="M0 0 C1.32 0.33 2.64 0.66 4 1 C3.69 3.88 3.69 3.88 3 7 C0 9 0 9 -4 9 C-3.67 8.01 -3.34 7.02 -3 6 C-2.01 6 -1.02 6 0 6 C0 4.02 0 2.04 0 0 Z " fill="#252170" transform="translate(787,491)"/>
<path d="M0 0 C0.33 0 0.66 0 1 0 C0.04 10.56 0.04 10.56 -1 15 C-2.55 12.68 -3.8 10.49 -5 8 C-4.01 8 -3.02 8 -2 8 C-2 6.02 -2 4.04 -2 2 C-1.34 2 -0.68 2 0 2 C0 1.34 0 0.68 0 0 Z " fill="#5B5793" transform="translate(199,481)"/>
<path d="M0 0 C1.98 0 3.96 0 6 0 C5.67 0.66 5.34 1.32 5 2 C4.93 3.37 4.92 4.75 4.94 6.12 C4.96 7.4 4.98 8.68 5 10 C4.67 9.01 4.34 8.02 4 7 C2.35 6.67 0.7 6.34 -1 6 C-0.67 4.02 -0.34 2.04 0 0 Z " fill="#37327E" transform="translate(694,428)"/>
<path d="M0 0 C3.75 1.25 4.62 2.9 7 6 C8.31 7.35 9.64 8.69 11 10 C6.58 9.5 4.33 7.87 1 5 C0.67 5 0.34 5 0 5 C0 3.35 0 1.7 0 0 Z " fill="#504C98" transform="translate(143,569)"/>
<path d="M0 0 C-1 3 -1 3 -2.58 4.21 C-6.01 5.33 -9.22 4.96 -12.75 4.62 C-13.45 4.57 -14.14 4.51 -14.86 4.45 C-16.58 4.31 -18.29 4.16 -20 4 C-20 3.67 -20 3.34 -20 3 C-18.87 2.87 -17.74 2.73 -16.57 2.6 C-15.09 2.42 -13.61 2.24 -12.12 2.06 C-11.01 1.93 -11.01 1.93 -9.86 1.8 C-6.51 1.39 -3.23 0 0 0 Z " fill="#5F5B98" transform="translate(581,572)"/>
<path d="M0 0 C3.29 3.11 5.84 6.02 8 10 C5.61 9.42 3.33 8.78 1 8 C1 6.35 1 4.7 1 3 C0.34 3 -0.32 3 -1 3 C-0.67 2.01 -0.34 1.02 0 0 Z " fill="#4F4A95" transform="translate(412,437)"/>
<path d="M0 0 C-0.99 0 -1.98 0 -3 0 C-2.67 1.65 -2.34 3.3 -2 5 C-4.31 4.67 -6.62 4.34 -9 4 C-9.33 3.01 -9.66 2.02 -10 1 C-3.71 -1.43 -3.71 -1.43 0 0 Z " fill="#4743A0" transform="translate(241,410)"/>
<path d="M0 0 C2.31 0 4.62 0 7 0 C5.19 2.12 5.19 2.12 2 4 C-1.78 3.76 -5.34 2.95 -9 2 C-9.33 2.66 -9.66 3.32 -10 4 C-10 3.01 -10 2.02 -10 1 C-6.7 1 -3.4 1 0 1 C0 0.67 0 0.34 0 0 Z " fill="#1D1965" transform="translate(523,558)"/>
<path d="M0 0 C1.1 3.29 0.8 4.71 0 8 C-2.31 8.33 -4.62 8.66 -7 9 C-6.02 7.69 -5.04 6.37 -4.06 5.06 C-3.52 4.33 -2.97 3.6 -2.41 2.85 C-1 1 -1 1 0 0 Z " fill="#4B45A3" transform="translate(404,547)"/>
<path d="M0 0 C3.88 1.88 3.88 1.88 5 3 C5.33 2.01 5.66 1.02 6 0 C6 0.66 6 1.32 6 2 C6.66 2 7.32 2 8 2 C8 3.65 8 5.3 8 7 C7.01 7 6.02 7 5 7 C0 1.53 0 1.53 0 0 Z " fill="#494398" transform="translate(383,452)"/>
<path d="M0 0 C2.21 0.01 3.99 1.79 4 4 C3.99 6.21 2.21 8 0 8 C-2.21 8 -3.99 6.21 -4 4 C-3.99 1.79 -2.21 0.01 0 0 Z " fill="#443E9F" transform="translate(227,411.99977924)"/>
<path d="M0 0 C-1.32 0.33 -2.64 0.66 -4 1 C-4 1.99 -4 2.98 -4 4 C-3.34 4 -2.68 4 -2 4 C-3.75 8.88 -3.75 8.88 -6 10 C-5.67 8.35 -5.34 6.7 -5 5 C-5.66 4.67 -6.32 4.34 -7 4 C-6.67 3.67 -6.34 3.34 -6 3 C-7.32 2.34 -8.64 1.68 -10 1 C-8.71 0.64 -7.42 0.29 -6.12 -0.06 C-5.41 -0.26 -4.69 -0.46 -3.95 -0.66 C-2 -1 -2 -1 0 0 Z " fill="#5954B2" transform="translate(295,584)"/>
<path d="M0 0 C3.88 1.75 3.88 1.75 5 4 C7.02 4.65 7.02 4.65 9 5 C9 6.65 9 8.3 9 10 C4.71 8.41 2.68 5.57 0 2 C0 1.34 0 0.68 0 0 Z " fill="#514D85" transform="translate(519,525)"/>
<path d="M0 0 C0.66 0.33 1.32 0.66 2 1 C2 1.99 2 2.98 2 4 C3.98 4.66 5.96 5.32 8 6 C7.67 7.65 7.34 9.3 7 11 C3.74 7.83 0.78 4.6 -2 1 C-1.34 0.67 -0.68 0.34 0 0 Z " fill="#5954A1" transform="translate(369,433)"/>
<path d="M0 0 C4.27 1.58 6.27 4.51 9 8 C8.01 8 7.02 8 6 8 C5.67 7.01 5.34 6.02 5 5 C3.35 4.67 1.7 4.34 0 4 C-0.33 3.01 -0.66 2.02 -1 1 C-0.67 0.67 -0.34 0.34 0 0 Z " fill="#906DD7" transform="translate(327,429)"/>
<path d="M0 0 C0.66 0.33 1.32 0.66 2 1 C-0.22 3.91 -1.93 5.95 -5 8 C-6.32 7.67 -7.64 7.34 -9 7 C-6.03 4.69 -3.06 2.38 0 0 Z " fill="#5954AC" transform="translate(210,421)"/>
<path d="M0 0 C1 3 1 3 0 6 C-3.3 5.01 -6.6 4.02 -10 3 C-4 0 -4 0 0 0 Z " fill="#4A457E" transform="translate(583,546)"/>
<path d="M0 0 C9.41 0.96 9.41 0.96 14 2 C11.03 3.65 8.34 4.44 5 5 C4.73 4.36 4.46 3.72 4.19 3.06 C3.11 0.67 3.11 0.67 0 0 Z " fill="#54508F" transform="translate(570,523)"/>
<path d="M0 0 C1.26 3.79 0.5 5.38 -1 9 C-1.99 9.5 -1.99 9.5 -3 10 C-3 9.34 -3 8.68 -3 8 C-3.99 7.67 -4.98 7.34 -6 7 C-4.02 4.69 -2.04 2.38 0 0 Z " fill="#524DA6" transform="translate(433,513)"/>
<path d="M0 0 C1 2 1 2 0.31 4.31 C-1.12 7.25 -2.88 9.52 -5 12 C-5.88 9.94 -5.88 9.94 -6 7 C-4.26 4.41 -2.2 2.21 0 0 Z " fill="#5E3ED2" transform="translate(316,443)"/>
<path d="M0 0 C2.47 0.5 2.47 0.5 5 1 C5 1.66 5 2.32 5 3 C7.97 3.33 10.94 3.66 14 4 C13.67 4.66 13.34 5.32 13 6 C11.58 5.72 10.17 5.42 8.75 5.12 C7.96 4.96 7.17 4.8 6.36 4.63 C4.03 4.01 2.11 3.15 0 2 C0 1.34 0 0.68 0 0 Z " fill="#5C5893" transform="translate(145,609)"/>
<path d="M0 0 C0.66 1.32 1.32 2.64 2 4 C-2.39 8 -2.39 8 -4 9 C-4.99 8.67 -5.98 8.34 -7 8 C-4.69 5.36 -2.38 2.72 0 0 Z " fill="#996BE8" transform="translate(328,548)"/>
<path d="M0 0 C1 0.1 2.01 0.2 3.04 0.31 C3.81 0.39 4.58 0.48 5.38 0.56 C4.38 1.06 4.38 1.06 3.38 1.56 C3.38 2.22 3.38 2.88 3.38 3.56 C2.12 3.44 0.86 3.32 -0.44 3.19 C-1.5 3.08 -1.5 3.08 -2.58 2.98 C-4.62 2.56 -4.62 2.56 -7.62 0.56 C-4.9 -0.8 -3.02 -0.32 0 0 Z " fill="#524F7B" transform="translate(547.625,592.4375)"/>
<path d="M0 0 C1.26 0.12 2.52 0.25 3.81 0.38 C4.87 0.48 4.87 0.48 5.96 0.59 C8 1 8 1 11 3 C4.6 4.23 4.6 4.23 1.56 3.06 C1.05 2.71 0.53 2.36 0 2 C0 1.34 0 0.68 0 0 Z " fill="#423D7D" transform="translate(577,476)"/>
<path d="M0 0 C1.65 0 3.3 0 5 0 C3.55 3.83 1.57 5.12 -2 7 C-2.33 6.01 -2.66 5.02 -3 4 C-2.01 4 -1.02 4 0 4 C0 2.68 0 1.36 0 0 Z " fill="#3B3767" transform="translate(789,583)"/>
<path d="M0 0 C2.31 0 4.62 0 7 0 C6.34 1.65 5.68 3.3 5 5 C3.68 5 2.36 5 1 5 C0.5 2.52 0.5 2.52 0 0 Z " fill="#373179" transform="translate(795,516)"/>
<path d="M0 0 C2.48 0.99 2.48 0.99 5 2 C5 2.33 5 2.66 5 3 C1.04 3.99 -2.92 4.98 -7 6 C-6.67 4.68 -6.34 3.36 -6 2 C-4.02 2 -2.04 2 0 2 C0 1.34 0 0.68 0 0 Z " fill="#5A567D" transform="translate(759,497)"/>
<path d="M0 0 C4.36 1.16 6.65 2.08 9 6 C3.51 5.39 3.51 5.39 1.12 3.56 C0 2 0 2 0 0 Z " fill="#56529C" transform="translate(386,411)"/>
<path d="M0 0 C1.32 0 2.64 0 4 0 C4 0.66 4 1.32 4 2 C5.65 1.67 7.3 1.34 9 1 C9 1.99 9 2.98 9 4 C5.04 3.67 1.08 3.34 -3 3 C-2.01 2.01 -1.02 1.02 0 0 Z " fill="#676297" transform="translate(188,495)"/>
<path d="M0 0 C0.66 0 1.32 0 2 0 C0.33 3.94 -2.23 6.79 -5 10 C-5.33 8.68 -5.66 7.36 -6 6 C-4.68 5.67 -3.36 5.34 -2 5 C-1.86 4.36 -1.71 3.72 -1.56 3.06 C-1 1 -1 1 0 0 Z " fill="#39289F" transform="translate(319,436)"/>
<path d="M0 0 C0.58 0.17 1.15 0.33 1.75 0.5 C4.27 1.14 4.27 1.14 8 1 C7.01 1.5 7.01 1.5 6 2 C6.66 3.65 7.32 5.3 8 7 C7.01 7 6.02 7 5 7 C3.61 5.47 3.61 5.47 2.31 3.5 C1.88 2.85 1.44 2.2 0.99 1.53 C0.5 0.77 0.5 0.77 0 0 Z " fill="#5550A0" transform="translate(352,416)"/>
<path d="M0 0 C1 4 1 4 1 6 C-1.38 7.06 -1.38 7.06 -4 8 C-4.66 7.67 -5.32 7.34 -6 7 C-4.02 4.69 -2.04 2.38 0 0 Z " fill="#504BA9" transform="translate(356,603)"/>
<path d="M0 0 C2.21 0.01 3.99 1.79 4 3 C3.99 5.21 2.21 7 0 7 C-1.66 7 -3 5.66 -3 3 C-3 1.34 -1.66 0 0 0 Z " fill="#37328B" transform="translate(395,598.99977924)"/>
<path d="M0 0 C3.73 1.24 4.8 2.81 7 6 C7 6.99 7 7.98 7 9 C2.97 7.66 2.12 5.58 0 2 C0 1.34 0 0.68 0 0 Z " fill="#504C84" transform="translate(867,578)"/>
<path d="M0 0 C0.99 0.33 1.98 0.66 3 1 C1.32 4.54 0.51 5.79 -3.19 7.31 C-4.58 7.65 -4.58 7.65 -6 8 C-4.02 5.36 -2.04 2.72 0 0 Z " fill="#584EC7" transform="translate(308,571)"/>
<path d="M0 0 C0.33 1.32 0.66 2.64 1 4 C0.01 4.5 0.01 4.5 -1 5 C-1.65 7.02 -1.65 7.02 -2 9 C-3.32 8.34 -4.64 7.68 -6 7 C-4.02 4.69 -2.04 2.38 0 0 Z " fill="#A176EB" transform="translate(335,539)"/>
<path d="M0 0 C0.99 0.33 1.98 0.66 3 1 C2.67 2.32 2.34 3.64 2 5 C3.32 5.33 4.64 5.66 6 6 C5.01 6.5 5.01 6.5 4 7 C1.64 6.06 -0.7 5.07 -3 4 C-3 3.34 -3 2.68 -3 2 C-2.01 2 -1.02 2 0 2 C0 1.34 0 0.68 0 0 Z " fill="#4E4A7F" transform="translate(536,535)"/>
<path d="M0 0 C1.32 0.33 2.64 0.66 4 1 C0.39 5.69 0.39 5.69 -1 7 C-1.99 7 -2.98 7 -4 7 C-4 6.01 -4 5.02 -4 4 C-2.68 4 -1.36 4 0 4 C0 2.68 0 1.36 0 0 Z " fill="#886BC1" transform="translate(377,535)"/>
<path d="M0 0 C0.66 0 1.32 0 2 0 C2.25 6.62 2.25 6.62 0 10 C-0.66 9.67 -1.32 9.34 -2 9 C-1.12 1.12 -1.12 1.12 0 0 Z " fill="#241E6C" transform="translate(524,519)"/>
<path d="M0 0 C1.18 0.1 2.36 0.2 3.57 0.31 C4.48 0.39 5.38 0.48 6.31 0.56 C6.31 0.89 6.31 1.22 6.31 1.56 C4.85 1.59 3.4 1.61 1.94 1.62 C1.13 1.64 0.31 1.65 -0.52 1.66 C-2.69 1.56 -2.69 1.56 -4.69 0.56 C-4.69 1.22 -4.69 1.88 -4.69 2.56 C-6.67 2.56 -8.65 2.56 -10.69 2.56 C-8.56 -1.7 -4.07 -0.36 0 0 Z " fill="#1D1854" transform="translate(596.6875,508.4375)"/>
<path d="M0 0 C4.75 0.75 4.75 0.75 7 3 C6.67 3.33 6.34 3.66 6 4 C4.47 3.91 2.95 3.75 1.44 3.56 C0.2 3.41 0.2 3.41 -1.07 3.25 C-1.7 3.17 -2.34 3.09 -3 3 C-2.01 2.67 -1.02 2.34 0 2 C0 1.34 0 0.68 0 0 Z " fill="#423D80" transform="translate(777,477)"/>
<path d="M0 0 C0.66 0 1.32 0 2 0 C2.33 0.66 2.66 1.32 3 2 C4.64 2.72 6.31 3.39 8 4 C7.01 4.99 6.02 5.98 5 7 C3.02 5.35 1.04 3.7 -1 2 C-0.67 1.34 -0.34 0.68 0 0 Z " fill="#484398" transform="translate(403,474)"/>
<path d="M0 0 C0.33 0.66 0.66 1.32 1 2 C1.99 2 2.98 2 4 2 C4 2.66 4 3.32 4 4 C1.69 4.33 -0.62 4.66 -3 5 C-3 5.66 -3 6.32 -3 7 C-3.66 6.67 -4.32 6.34 -5 6 C-3.35 4.02 -1.7 2.04 0 0 Z " fill="#504AA5" transform="translate(410,540)"/>
<path d="M0 0 C-0.66 3.3 -1.32 6.6 -2 10 C-2.66 10 -3.32 10 -4 10 C-4 7.03 -4 4.06 -4 1 C-2 0 -2 0 0 0 Z " fill="#221C6B" transform="translate(721,500)"/>
<path d="M0 0 C3.48 3.02 4.79 5.57 6 10 C3.55 9.02 2.23 8.35 0.75 6.12 C0 4 0 4 0 0 Z " fill="#585581" transform="translate(605,491)"/>
<path d="M0 0 C0.33 0 0.66 0 1 0 C1.98 6.05 1.98 6.05 2 8 C1.34 8.66 0.68 9.32 0 10 C-2.08 5.59 -2.08 5.59 -1.69 2.75 C-1 1 -1 1 0 0 Z " fill="#464292" transform="translate(200,473)"/>
<path d="M0 0 C1.32 0.66 2.64 1.32 4 2 C1.42 4.65 -0.92 6.94 -4 9 C-4 8.01 -4 7.02 -4 6 C-3.34 6 -2.68 6 -2 6 C-2 4.68 -2 3.36 -2 2 C-1.34 2 -0.68 2 0 2 C0 1.34 0 0.68 0 0 Z " fill="#5D598C" transform="translate(215,454)"/>
<path d="M0 0 C2.97 0.33 5.94 0.66 9 1 C9 2.32 9 3.64 9 5 C4.89 3.81 3.11 3.11 0 0 Z " fill="#575384" transform="translate(530,588)"/>
<path d="M0 0 C1.67 0.97 3.34 1.95 5 2.94 C6.39 3.76 6.39 3.76 7.81 4.59 C8.53 5.06 9.26 5.52 10 6 C10 6.33 10 6.66 10 7 C7.69 6.67 5.38 6.34 3 6 C3 5.34 3 4.68 3 4 C2.01 3.67 1.02 3.34 0 3 C0 2.01 0 1.02 0 0 Z " fill="#615E92" transform="translate(544,567)"/>
<path d="M0 0 C3 3.75 3 3.75 3 6 C3.66 6.33 4.32 6.66 5 7 C3.35 7.66 1.7 8.32 0 9 C0 6 0 3 0 0 Z " fill="#4F4B86" transform="translate(892,562)"/>
<path d="M0 0 C1.65 0.33 3.3 0.66 5 1 C4.29 1.65 4.29 1.65 3.56 2.31 C1.76 4.02 1.76 4.02 1 7 C0.34 7 -0.32 7 -1 7 C-0.67 4.69 -0.34 2.38 0 0 Z " fill="#302B74" transform="translate(514,560)"/>
<path d="M0 0 C0.33 0.66 0.66 1.32 1 2 C1.99 2 2.98 2 4 2 C4.33 3.98 4.66 5.96 5 8 C4.01 8.33 3.02 8.66 2 9 C1.34 6.03 0.68 3.06 0 0 Z " fill="#534F90" transform="translate(710,554)"/>
<path d="M0 0 C2.45 3.68 2.4 5.65 2 10 C1.01 10.66 0.02 11.32 -1 12 C-0.67 8.04 -0.34 4.08 0 0 Z " fill="#5D5898" transform="translate(798,539)"/>
<path d="M0 0 C3.96 0.33 7.92 0.66 12 1 C12 1.33 12 1.66 12 2 C6.06 2.33 0.12 2.66 -6 3 C-6 2.67 -6 2.34 -6 2 C-4.02 2 -2.04 2 0 2 C0 1.34 0 0.68 0 0 Z " fill="#87859C" transform="translate(592,509)"/>
<path d="M0 0 C0.99 0.33 1.98 0.66 3 1 C3 1.66 3 2.32 3 3 C3.96 3.34 3.96 3.34 4.94 3.69 C7 5 7 5 7.75 7.62 C7.87 8.8 7.87 8.8 8 10 C4.71 6.89 2.16 3.98 0 0 Z " fill="#9E7DDB" transform="translate(345,496)"/>
<path d="M0 0 C1.66 0 3 1.34 3 3 C3 4.66 1.66 6 0 6 C-1.66 6 -3 4.66 -3 3 C-3 1.34 -1.66 0 0 0 Z " fill="#4F4BA7" transform="translate(131,479.99983443)"/>
<path d="M0 0 C1.65 0.33 3.3 0.66 5 1 C2.6 3.9 0.69 4.5 -3 5 C-3 4.01 -3 3.02 -3 2 C-2.01 2 -1.02 2 0 2 C0 1.34 0 0.68 0 0 Z " fill="#4B4872" transform="translate(782,589)"/>
<path d="M0 0 C0.99 0 1.98 0 3 0 C3.2 2.05 3.39 4.1 3.59 6.15 C3.72 6.76 3.86 7.37 4 8 C4.66 8.33 5.32 8.66 6 9 C5.01 9 4.02 9 3 9 C2.01 6.03 1.02 3.06 0 0 Z " fill="#6662AA" transform="translate(108,570)"/>
<path d="M0 0 C0.33 0.66 0.66 1.32 1 2 C0.67 2.66 0.34 3.32 0 4 C0.66 4.33 1.32 4.66 2 5 C-0.38 6.06 -0.38 6.06 -3 7 C-3.66 6.67 -4.32 6.34 -5 6 C-3.35 4.02 -1.7 2.04 0 0 Z " fill="#986EE8" transform="translate(320,557)"/>
<path d="M0 0 C0.31 0.64 0.62 1.28 0.94 1.94 C1.83 3.94 1.83 3.94 3 5 C3.04 7 3.04 9 3 11 C2.01 11.5 2.01 11.5 1 12 C0.02 7.95 -0.08 4.16 0 0 Z " fill="#211B67" transform="translate(799,525)"/>
<path d="M0 0 C-0.99 0.5 -0.99 0.5 -2 1 C-2 1.66 -2 2.32 -2 3 C-4.97 2.5 -4.97 2.5 -8 2 C-8 1.34 -8 0.68 -8 0 C-5.14 -1.43 -3.07 -0.6 0 0 Z " fill="#3F3981" transform="translate(594,528)"/>
<path d="M0 0 C0.66 0 1.32 0 2 0 C1.34 2.97 0.68 5.94 0 9 C-0.99 8.67 -1.98 8.34 -3 8 C-3 6.68 -3 5.36 -3 4 C-2.34 4 -1.68 4 -1 4 C-0.67 2.68 -0.34 1.36 0 0 Z " fill="#55518C" transform="translate(136,523)"/>
<path d="M0 0 C2.97 0.5 2.97 0.5 6 1 C6.33 2.98 6.66 4.96 7 7 C5.83 6.02 4.66 5.04 3.5 4.06 C2.85 3.52 2.2 2.97 1.53 2.41 C1.03 1.94 0.52 1.48 0 1 C0 0.67 0 0.34 0 0 Z " fill="#615E93" transform="translate(722,579)"/>
<path d="M0 0 C0.66 0.99 1.32 1.98 2 3 C1.01 4.32 0.02 5.64 -1 7 C-2.32 6.67 -3.64 6.34 -5 6 C-3.35 4.02 -1.7 2.04 0 0 Z " fill="#5751AA" transform="translate(396,556)"/>
<path d="M0 0 C2.97 0 5.94 0 9 0 C9 0.66 9 1.32 9 2 C6.69 2.33 4.38 2.66 2 3 C2 2.34 2 1.68 2 1 C1.34 0.67 0.68 0.34 0 0 Z " fill="#383479" transform="translate(559,522)"/>
<path d="M0 0 C2.15 3.23 2.2 4.28 2 8 C0.35 8.33 -1.3 8.66 -3 9 C-2.01 6.03 -1.02 3.06 0 0 Z " fill="#6864B5" transform="translate(108,511)"/>
<path d="M0 0 C0.99 0.33 1.98 0.66 3 1 C3 1.66 3 2.32 3 3 C3.66 3 4.32 3 5 3 C5.33 3.99 5.66 4.98 6 6 C4.68 6.33 3.36 6.66 2 7 C1.34 4.69 0.68 2.38 0 0 Z M5 2 C7 3 7 3 7 3 Z " fill="#494383" transform="translate(583,504)"/>
<path d="M0 0 C1.66 0 3 1.34 3 3 C3 4.66 1.66 6 0 6 C-1.66 6 -3 4.66 -3 3 C-3 1.34 -1.66 0 0 0 Z " fill="#474288" transform="translate(720,494.99983443)"/>
<path d="M0 0 C2.5 2.31 2.5 2.31 5 5 C5 5.99 5 6.98 5 8 C4.34 7.67 3.68 7.34 3 7 C3 6.34 3 5.68 3 5 C1.68 4.67 0.36 4.34 -1 4 C-0.67 2.68 -0.34 1.36 0 0 Z " fill="#58559D" transform="translate(428,456)"/>
<path d="M0 0 C3.27 0.56 4.83 1.5 7 4 C6.67 4.99 6.34 5.98 6 7 C5.34 7 4.68 7 4 7 C2.5 4.73 1.22 2.43 0 0 Z " fill="#48448E" transform="translate(399,425)"/>
<path d="M0 0 C1.98 0 3.96 0 6 0 C5.67 0.99 5.34 1.98 5 3 C2.44 4.19 2.44 4.19 0 5 C0 3.33 0 1.67 0 0 Z " fill="#545188" transform="translate(385,611)"/>
<path d="M0 0 C-1.05 2.62 -1.65 3.79 -4.12 5.25 C-4.74 5.5 -5.36 5.75 -6 6 C-6 4.68 -6 3.36 -6 2 C-2.25 0 -2.25 0 0 0 Z " fill="#6964A4" transform="translate(326,599)"/>
<path d="M0 0 C0.33 1.32 0.66 2.64 1 4 C-1.64 4.33 -4.28 4.66 -7 5 C-4.64 2.47 -3.34 1.11 0 0 Z " fill="#423C9F" transform="translate(374,586)"/>
<path d="M0 0 C0.66 0.99 1.32 1.98 2 3 C0.68 3.99 -0.64 4.98 -2 6 C-2.66 5.67 -3.32 5.34 -4 5 C-4 4.01 -4 3.02 -4 2 C-2.68 1.34 -1.36 0.68 0 0 Z " fill="#2F2999" transform="translate(295,583)"/>
<path d="M0 0 C-1.44 3.37 -3.33 5.51 -6 8 C-6.25 5.69 -6.25 5.69 -6 3 C-3.96 1.02 -2.88 0 0 0 Z " fill="#937CBC" transform="translate(375,542)"/>
<path d="M0 0 C2.97 0.33 5.94 0.66 9 1 C9 1.66 9 2.32 9 3 C6.03 2.67 3.06 2.34 0 2 C0 1.34 0 0.68 0 0 Z " fill="#585579" transform="translate(563,545)"/>
<path d="M0 0 C1.66 0 3 1.34 3 3 C3 4.66 1.66 6 0 6 C-1.66 6 -3 4.66 -3 3 C-3 1.34 -1.66 0 0 0 Z " fill="#5650A9" transform="translate(425,520.99983443)"/>
<path d="M0 0 C-1.25 3.46 -2.68 6.15 -5 9 C-4.41 2.85 -4.41 2.85 -4 1 C-2 0 -2 0 0 0 Z " fill="#5B5786" transform="translate(143,514)"/>
<path d="M0 0 C0.66 0.33 1.32 0.66 2 1 C0.02 3.97 0.02 3.97 -2 7 C-2.99 6.34 -3.98 5.68 -5 5 C-3.35 3.35 -1.7 1.7 0 0 Z " fill="#4E4A8E" transform="translate(527,485)"/>
<path d="M0 0 C0.66 0.33 1.32 0.66 2 1 C0.68 2.65 -0.64 4.3 -2 6 C-3.32 5.34 -4.64 4.68 -6 4 C-4.02 2.68 -2.04 1.36 0 0 Z " fill="#534F92" transform="translate(737,480)"/>
<path d="M0 0 C0.33 0.66 0.66 1.32 1 2 C0.34 2 -0.32 2 -1 2 C-0.67 3.65 -0.34 5.3 0 7 C-1.32 7 -2.64 7 -4 7 C-3.4 4.98 -2.73 2.98 -2 1 C-1.34 0.67 -0.68 0.34 0 0 Z " fill="#2C278E" transform="translate(142,475)"/>
<path d="M0 0 C0.66 0.33 1.32 0.66 2 1 C2 2.98 2 4.96 2 7 C0.02 5.35 -1.96 3.7 -4 2 C-2.12 0.94 -2.12 0.94 0 0 Z " fill="#836FCB" transform="translate(310,451)"/>
<path d="M0 0 C1.98 0.99 1.98 0.99 4 2 C3.62 4.44 3.62 4.44 3 7 C2.01 7.5 2.01 7.5 1 8 C0.67 5.36 0.34 2.72 0 0 Z " fill="#524F90" transform="translate(391,603)"/>
<path d="M0 0 C-3.13 1.86 -5.37 2.2 -9 2 C-9 1.34 -9 0.68 -9 0 C-5.93 -1.53 -3.3 -0.55 0 0 Z " fill="#524F76" transform="translate(587,594)"/>
<path d="M0 0 C1.32 0 2.64 0 4 0 C3.69 1.88 3.69 1.88 3 4 C2.01 4.66 1.02 5.32 0 6 C0 4.02 0 2.04 0 0 Z " fill="#524E88" transform="translate(407,587)"/>
<path d="M0 0 C0.66 0 1.32 0 2 0 C1.69 2.38 1.69 2.38 1 5 C0.01 5.66 -0.98 6.32 -2 7 C-2 5.35 -2 3.7 -2 2 C-1.34 2 -0.68 2 0 2 C0 1.34 0 0.68 0 0 Z " fill="#56528A" transform="translate(427,565)"/>
<path d="M0 0 C0.66 0 1.32 0 2 0 C1.5 3.69 0.9 5.6 -2 8 C-2.33 6.68 -2.66 5.36 -3 4 C-2.01 4 -1.02 4 0 4 C0 2.68 0 1.36 0 0 Z " fill="#45417F" transform="translate(447,541)"/>
<path d="M0 0 C1.98 0.5 1.98 0.5 4 1 C2.68 3.31 1.36 5.62 0 8 C-0.98 4.95 -0.98 3.05 0 0 Z " fill="#4F4C71" transform="translate(741,509)"/>
<path d="M0 0 C0.66 0 1.32 0 2 0 C3.39 1.96 4.73 3.96 6 6 C5.01 6 4.02 6 3 6 C0.81 3.5 0.81 3.5 -1 1 C-0.67 0.67 -0.34 0.34 0 0 Z " fill="#9570DA" transform="translate(330,477)"/>
<path d="M0 0 C2.12 0.94 2.12 0.94 4 2 C4 2.66 4 3.32 4 4 C2.35 4 0.7 4 -1 4 C-1.33 3.01 -1.66 2.02 -2 1 C-1.34 0.67 -0.68 0.34 0 0 Z " fill="#231E6A" transform="translate(524,579)"/>
<path d="M0 0 C0.99 0 1.98 0 3 0 C2.69 2.38 2.69 2.38 2 5 C1.01 5.66 0.02 6.32 -1 7 C-0.67 4.69 -0.34 2.38 0 0 Z " fill="#645FA8" transform="translate(344,573)"/>
<path d="M0 0 C0.66 0 1.32 0 2 0 C2.33 2.31 2.66 4.62 3 7 C2.01 7 1.02 7 0 7 C0 4.69 0 2.38 0 0 Z " fill="#423F73" transform="translate(539,559)"/>
<path d="M0 0 C0 0.99 0 1.98 0 3 C-2.97 2.67 -5.94 2.34 -9 2 C-9 1.67 -9 1.34 -9 1 C-5.85 0.3 -3.27 0 0 0 Z " fill="#615E86" transform="translate(561,543)"/>
<path d="M0 0 C3.24 0.35 4.62 0.56 6.81 3.06 C7.2 3.7 7.6 4.34 8 5 C7.01 5 6.02 5 5 5 C4.67 4.01 4.34 3.02 4 2 C2.68 2 1.36 2 0 2 C0 1.34 0 0.68 0 0 Z " fill="#4B487F" transform="translate(601,534)"/>
<path d="M0 0 C0.66 0.33 1.32 0.66 2 1 C1.01 2.98 0.02 4.96 -1 7 C-2 6 -3 5 -4 4 C-2.68 2.68 -1.36 1.36 0 0 Z " fill="#4F4BA5" transform="translate(138,476)"/>
<path d="M0 0 C2.97 0.33 5.94 0.66 9 1 C9 1.66 9 2.32 9 3 C7.35 3.33 5.7 3.66 4 4 C4 3.34 4 2.68 4 2 C2.68 1.34 1.36 0.68 0 0 Z " fill="#3E3982" transform="translate(546,476)"/>
<path d="M0 0 C0.66 1.32 1.32 2.64 2 4 C0.68 4 -0.64 4 -2 4 C-2.33 4.66 -2.66 5.32 -3 6 C-3.66 5.67 -4.32 5.34 -5 5 C-3.35 3.35 -1.7 1.7 0 0 Z " fill="#585394" transform="translate(657,435)"/>
<path d="M0 0 C0 0.66 0 1.32 0 2 C-2.31 2 -4.62 2 -7 2 C-7 1.34 -7 0.68 -7 0 C-4.33 -1.33 -2.83 -0.67 0 0 Z " fill="#2F2B93" transform="translate(204,434)"/>
<path d="M0 0 C0 0.99 0 1.98 0 3 C-1.65 3.33 -3.3 3.66 -5 4 C-5 3.34 -5 2.68 -5 2 C-5.66 1.67 -6.32 1.34 -7 1 C-4 0 -4 0 0 0 Z " fill="#211B67" transform="translate(675,429)"/>
</svg>
